<?xml version="1.0" standalone="no"?>
<!DOCTYPE svg PUBLIC "-//W3C//DTD SVG 20010904//EN"
 "http://www.w3.org/TR/2001/REC-SVG-20010904/DTD/svg10.dtd">
<svg version="1.0" xmlns="http://www.w3.org/2000/svg"
 width="4600.000000pt" height="4370.000000pt" viewBox="0 0 4600.000000 4370.000000"
 preserveAspectRatio="xMidYMid meet">
<metadata>
Created by potrace 1.16, written by Peter Selinger 2001-2019
</metadata>
<g transform="translate(0.000000,4370.000000) scale(0.100000,-0.100000)"
fill="#000000" stroke="none">
<path d="M1720 43696 c0 -2 35 -12 78 -22 75 -18 622 -19 19032 -19 18297 0
18958 1 19050 18 52 10 97 20 99 23 2 2 -8605 4 -19127 4 -10523 0 -19132 -2
-19132 -4z"/>
<path d="M40190 43684 c139 -34 220 -35 3025 -32 l2780 3 -55 20 c-54 20 -82
20 -2930 21 -2437 2 -2867 0 -2820 -12z"/>
<path d="M13390 43160 c0 -33 90 -325 213 -685 319 -941 382 -1154 436 -1472
l18 -103 -21 0 c-12 0 -180 18 -374 40 -193 22 -355 40 -360 40 -5 0 -14 37
-21 83 -13 82 -162 612 -378 1342 -63 215 -120 406 -125 425 -6 19 -17 43 -26
54 -17 18 -96 76 -105 76 -16 0 -28 -184 -37 -545 -14 -582 -27 -715 -90 -907
-65 -198 -196 -432 -374 -666 -41 -54 -86 -106 -100 -115 -32 -21 -79 -22
-111 -1 -13 9 -81 90 -151 181 -160 209 -248 315 -358 430 -267 281 -544 443
-876 513 -101 21 -340 39 -340 25 0 -27 76 -116 189 -223 79 -75 162 -165 210
-229 167 -223 321 -593 321 -773 0 -93 -17 -144 -66 -199 -57 -63 -142 -102
-327 -147 l-147 -36 -47 53 c-88 102 -408 415 -493 483 -108 86 -286 205 -394
262 -105 56 -267 126 -274 120 -10 -10 58 -203 106 -301 27 -55 86 -161 132
-235 156 -254 230 -436 230 -568 -1 -140 -60 -205 -297 -326 -51 -26 -95 -51
-98 -56 -3 -5 9 -25 27 -46 31 -36 32 -37 8 -29 -33 9 -129 68 -262 160 -113
77 -189 109 -290 121 -47 5 -59 3 -64 -9 -8 -21 21 -214 46 -313 38 -149 19
-282 -59 -400 -51 -78 -106 -130 -259 -244 -99 -74 -149 -120 -226 -210 -54
-63 -173 -202 -265 -309 -372 -433 -500 -627 -754 -1138 -170 -342 -486 -1037
-594 -1303 -52 -129 -98 -238 -102 -242 -8 -8 -240 59 -375 108 -694 253
-1289 692 -2121 1563 -275 289 -258 279 -270 155 -5 -58 -2 -88 20 -172 14
-56 35 -125 46 -153 42 -109 594 -957 801 -1234 344 -458 692 -782 1093 -1020
285 -168 614 -292 1930 -725 286 -94 531 -176 545 -181 24 -10 23 -11 -30 -40
-30 -17 -219 -114 -420 -216 -201 -102 -382 -197 -402 -210 -42 -28 -79 -95
-74 -133 2 -14 9 -62 16 -108 41 -256 -84 -439 -382 -562 -43 -17 -115 -54
-160 -82 -46 -27 -96 -56 -111 -64 l-28 -15 2 333 c1 183 5 347 10 364 5 16
24 48 43 70 l34 39 100 1 c55 1 125 7 154 14 191 45 313 182 384 435 9 33 32
82 50 110 19 27 41 71 50 98 14 44 14 50 0 72 -18 27 -65 43 -145 47 l-54 3
-53 -152 c-29 -84 -65 -196 -79 -250 -48 -182 -81 -203 -330 -218 -55 -3 -136
-10 -180 -15 -44 -5 -114 -12 -155 -15 -90 -8 -121 -12 -128 -19 -2 -3 24
-151 58 -328 98 -505 99 -510 79 -582 -23 -82 -116 -150 -774 -566 -203 -128
-376 -239 -384 -246 -12 -11 -10 -19 14 -54 44 -63 124 -132 196 -166 78 -38
142 -60 324 -114 77 -23 143 -44 147 -48 14 -14 -275 -534 -387 -696 -94 -134
-93 -172 6 -301 93 -121 366 -535 396 -602 22 -46 28 -73 28 -128 -1 -92 -23
-140 -112 -236 -114 -123 -117 -165 -27 -361 190 -413 218 -505 269 -868 66
-467 237 -909 498 -1288 30 -42 59 -91 66 -109 16 -39 16 -117 1 -208 -17
-106 -24 -502 -11 -625 26 -245 73 -437 158 -650 59 -150 116 -256 218 -410
294 -442 728 -791 1283 -1030 297 -129 619 -231 1066 -341 208 -51 209 -51
252 -34 24 9 44 21 44 26 0 6 -33 25 -73 44 -74 34 -162 61 -432 134 -507 136
-905 315 -1267 571 -186 132 -307 274 -488 573 -57 95 -126 205 -153 246 -84
126 -151 394 -164 656 -9 199 36 643 65 638 6 -2 87 -35 179 -74 92 -39 220
-89 285 -110 205 -67 772 -244 1137 -354 347 -105 356 -107 425 -101 122 11
122 12 128 64 3 32 3 32 -102 78 -156 68 -317 131 -708 280 -621 236 -991 388
-1152 472 -490 256 -775 651 -854 1182 -17 116 -20 390 -6 525 17 166 51 358
69 400 45 102 121 149 240 148 65 -1 97 -8 217 -52 78 -28 146 -51 152 -51 5
0 16 10 25 23 14 22 7 33 -270 367 -156 190 -290 351 -298 359 -12 12 -20 10
-57 -14 -99 -65 -210 -201 -281 -341 -32 -63 -100 -258 -117 -337 -8 -32 -17
-60 -21 -62 -4 -3 -50 70 -104 161 l-97 165 103 127 c57 70 139 169 181 221
130 157 128 183 -19 379 -110 145 -260 371 -321 483 -86 157 -95 306 -29 499
75 221 206 500 236 500 3 0 28 -17 56 -38 l49 -37 57 -175 c67 -202 109 -371
139 -553 65 -395 195 -732 396 -1033 108 -163 173 -244 298 -373 175 -179 271
-250 556 -409 545 -303 927 -440 1323 -472 112 -9 309 -6 345 5 6 3 12 3 12 0
0 -2 -29 -266 -65 -587 -37 -327 -68 -649 -71 -733 -9 -276 20 -487 121 -880
82 -321 167 -678 305 -1295 405 -1804 444 -1943 738 -2622 165 -380 232 -608
257 -868 4 -47 14 -78 35 -113 17 -27 30 -52 30 -56 0 -5 -18 -11 -41 -15 -23
-4 -51 -17 -65 -31 -37 -37 -32 -92 19 -228 35 -92 89 -190 280 -510 365 -610
457 -768 630 -1087 240 -444 304 -553 482 -820 451 -678 824 -1114 1215 -1420
306 -240 427 -388 701 -860 370 -640 458 -779 610 -972 100 -127 713 -737 899
-896 74 -63 141 -120 148 -127 11 -10 4 -23 -36 -71 -162 -194 -286 -441 -351
-700 -47 -187 -64 -333 -65 -564 l-1 -205 30 -60 c37 -74 87 -111 222 -166
210 -86 361 -99 510 -45 124 46 585 283 648 334 41 33 84 84 144 174 227 337
440 499 801 607 432 131 632 338 889 925 l60 137 -32 -6 c-102 -23 -138 -62
-262 -290 -117 -215 -253 -348 -450 -442 -53 -25 -117 -43 -222 -64 -294 -57
-348 -70 -428 -109 -91 -43 -161 -101 -207 -169 -51 -76 -177 -230 -252 -309
-134 -140 -322 -285 -496 -380 -271 -148 -659 -251 -738 -196 -46 32 -56 69
-55 204 2 292 99 549 317 840 98 131 172 216 372 427 l141 148 -168 115 c-373
254 -517 350 -700 470 -206 135 -347 256 -441 380 -66 86 -141 243 -173 360
-125 453 -286 749 -557 1019 -104 104 -200 182 -398 320 -220 154 -289 209
-451 357 -384 352 -764 768 -1047 1149 -217 292 -333 479 -652 1055 -90 162
-213 383 -273 490 -159 284 -296 556 -355 707 -52 132 -178 476 -184 502 -2 8
13 19 37 27 63 23 85 50 85 103 0 25 -10 66 -21 91 -12 25 -37 94 -56 154 -19
61 -84 238 -144 395 -76 197 -119 326 -139 415 -27 119 -35 139 -95 237 -88
144 -154 286 -208 449 -53 158 -82 283 -182 790 -41 206 -105 531 -144 723
-150 739 -292 1662 -340 2212 -22 248 -21 601 3 760 51 340 155 628 316 871
52 79 295 378 406 502 l39 42 240 -54 c289 -65 414 -87 690 -121 281 -36 468
-33 625 10 92 25 122 29 240 29 117 0 146 -4 221 -27 126 -38 216 -82 414
-202 301 -182 404 -219 615 -219 101 0 147 5 236 26 200 48 352 46 564 -7 363
-90 600 -105 818 -50 187 47 377 167 499 316 31 38 58 69 60 69 2 0 3 -65 3
-144 l0 -143 -152 -53 c-84 -29 -159 -56 -166 -59 -8 -5 0 -18 26 -44 33 -32
95 -61 398 -183 359 -145 729 -289 922 -359 114 -41 173 -79 197 -125 16 -30
22 -129 12 -167 -9 -29 -19 -129 -26 -258 -8 -125 0 -167 36 -207 40 -44 103
-7 169 97 64 100 147 205 223 280 61 59 62 60 89 45 l27 -16 1 -194 c0 -188 2
-198 28 -265 15 -38 31 -74 36 -79 6 -6 34 12 72 45 76 66 85 75 149 166 50
69 52 71 81 61 27 -10 29 -14 24 -47 -3 -20 -8 -108 -11 -196 -4 -88 -10 -223
-14 -300 -5 -77 -5 -143 -2 -147 4 -4 21 -10 38 -14 29 -6 35 0 149 132 l119
137 8 -34 c4 -19 10 -124 13 -234 5 -170 9 -207 27 -250 11 -27 22 -51 23 -53
1 -2 24 8 52 22 68 35 114 91 207 255 79 141 80 142 110 135 16 -3 34 -10 39
-14 16 -16 -22 -228 -63 -348 -62 -183 -74 -253 -77 -462 -3 -202 2 -250 47
-475 35 -173 50 -212 107 -278 l41 -47 31 45 c52 75 64 115 155 490 48 198 91
364 96 369 8 9 78 -28 136 -71 18 -14 42 -45 54 -69 29 -60 20 -113 -32 -195
-64 -103 -74 -130 -163 -450 -163 -586 -177 -650 -170 -780 8 -175 58 -382
122 -508 38 -77 62 -100 62 -60 0 28 99 276 151 381 32 63 495 852 534 911 11
16 15 13 43 -30 30 -46 33 -60 62 -306 45 -374 52 -409 84 -456 l28 -41 30 18
c52 30 74 65 117 178 49 127 72 156 181 226 l75 48 18 -72 c29 -119 21 -170
-73 -448 -45 -135 -84 -249 -86 -255 -3 -6 31 -10 91 -9 113 1 96 -9 427 241
120 90 232 170 251 179 31 15 45 13 312 -40 363 -71 598 -123 864 -192 l216
-56 125 5 c155 6 223 27 350 106 135 84 221 179 521 579 l190 253 97 -68 c241
-167 289 -216 356 -367 26 -60 51 -137 57 -177 l12 -70 41 6 c104 17 105 17
354 269 229 232 328 347 405 467 103 162 267 500 422 869 191 457 237 575 255
660 19 85 51 351 44 359 -6 6 -87 -19 -105 -32 -8 -7 -45 -70 -82 -141 -174
-334 -344 -547 -841 -1056 -361 -369 -421 -420 -578 -488 -68 -29 -296 -87
-306 -77 -2 2 36 55 86 118 106 137 142 197 176 297 47 141 51 290 15 580 -72
586 -262 1018 -635 1448 -18 20 -56 44 -99 61 l-70 29 -24 -23 -24 -24 41 -95
c23 -52 80 -160 127 -238 169 -279 322 -618 393 -873 144 -513 116 -870 -92
-1159 -52 -73 -112 -134 -268 -279 -129 -119 -242 -249 -351 -402 -127 -180
-148 -205 -195 -240 -65 -48 -158 -76 -257 -76 -44 0 -190 11 -325 25 -641 68
-769 88 -1044 166 -99 27 -186 50 -193 50 -7 0 -34 42 -59 93 -59 118 -86 147
-135 147 -64 0 -162 37 -236 89 -44 31 -115 100 -187 180 -64 72 -121 133
-126 136 -6 4 -76 -5 -157 -20 -109 -20 -148 -24 -153 -15 -4 6 -10 52 -14
101 -8 103 -23 151 -67 216 -53 77 -202 246 -374 424 -161 166 -238 256 -267
314 -9 17 -32 82 -52 145 -19 63 -46 131 -58 152 -38 61 -316 363 -499 543
-357 349 -614 522 -1034 695 -398 164 -1349 577 -1498 651 l-169 84 111 16
c191 29 264 83 292 217 21 104 -1 175 -67 214 -36 21 -184 54 -325 73 -169 22
-266 64 -368 159 -30 28 -73 81 -97 117 -74 113 -147 163 -267 179 -93 13
-363 28 -627 35 -161 5 -251 11 -285 21 -73 22 -235 26 -333 8 -216 -38 -416
-146 -563 -302 -64 -67 -136 -171 -121 -174 18 -3 33 -5 127 -12 55 -4 114 -9
130 -12 73 -10 295 -24 374 -24 176 0 356 42 481 113 30 17 105 80 167 139
109 106 112 108 158 108 52 0 165 -44 165 -64 0 -16 -85 -116 -140 -163 -113
-100 -247 -174 -535 -298 -228 -98 -325 -125 -453 -126 -183 -1 -250 21 -598
195 -148 73 -295 146 -326 161 -32 14 -58 28 -58 31 0 2 72 112 160 244 88
132 161 244 162 250 2 7 -42 37 -97 69 -104 59 -196 118 -277 178 l-48 35 -10
-27 c-6 -15 -15 -72 -21 -127 -18 -179 -60 -269 -152 -323 -58 -33 -146 -52
-311 -65 -78 -7 -231 -23 -341 -36 -215 -26 -389 -30 -525 -14 -292 36 -573
127 -913 296 -309 154 -367 193 -367 243 0 5 48 12 108 15 398 23 655 72 972
188 165 60 458 204 600 294 150 95 323 177 487 230 154 50 213 88 247 158 35
75 15 135 -77 233 -111 119 -138 178 -202 452 -24 103 -48 198 -54 214 -10 24
-8 27 12 27 36 0 165 38 216 64 116 59 206 162 252 286 17 48 29 63 80 100
137 100 200 222 205 400 3 103 -23 298 -46 340 -11 20 -48 27 -210 35 -552 29
-811 80 -1074 212 -185 92 -287 174 -416 333 -93 114 -156 175 -230 224 l-55
36 -29 -30 c-35 -34 -46 10 97 -380 242 -661 315 -779 802 -1300 100 -107 196
-212 214 -232 l33 -38 -52 -166 c-144 -466 -303 -751 -551 -989 -168 -161
-348 -264 -575 -330 -171 -50 -337 -69 -699 -80 -366 -11 -583 -25 -594 -39
-5 -6 -12 -22 -16 -35 -6 -21 32 -62 366 -397 l373 -373 -36 -53 c-37 -55
-113 -165 -303 -442 -61 -88 -113 -164 -117 -170 -4 -6 -20 -6 -45 2 -21 7
-103 17 -183 23 -544 38 -1000 198 -1650 579 -424 249 -628 515 -670 875 -33
277 49 632 232 1000 79 159 128 243 278 475 123 190 142 232 143 315 1 50 -6
75 -41 150 -22 50 -50 115 -62 146 l-21 57 -77 -30 c-42 -16 -85 -37 -95 -46
-21 -19 -192 -301 -319 -527 -221 -392 -247 -447 -300 -650 -12 -46 -16 -50
-46 -53 -17 -2 -32 0 -32 5 0 4 -29 129 -65 276 -36 148 -65 273 -65 278 0 5
24 9 53 9 110 0 172 59 197 189 6 31 42 185 81 343 38 158 80 355 94 439 15
84 34 173 44 199 45 118 140 202 276 241 322 94 353 111 381 205 17 61 14 114
-17 279 -10 55 -19 122 -19 148 0 81 16 95 212 177 250 105 497 232 555 284
26 24 82 84 123 135 41 50 79 91 83 91 19 0 612 -113 762 -145 88 -19 275 -66
415 -104 818 -222 1341 -332 1780 -376 204 -20 280 -24 425 -25 231 0 401 31
561 101 96 43 185 152 265 327 22 46 39 90 39 96 0 16 -55 90 -148 200 l-73
86 -67 -59 c-175 -154 -358 -231 -555 -232 -87 -1 -597 41 -807 66 -125 15
-335 51 -615 105 -82 16 -175 34 -205 39 -30 5 -379 73 -775 151 -396 77 -875
170 -1065 205 -673 127 -910 184 -1282 308 -557 187 -1109 451 -1659 795 -324
202 -501 368 -683 640 -74 111 -182 310 -173 319 9 8 61 -24 92 -57 126 -135
459 -427 645 -566 834 -624 1799 -917 3290 -999 353 -20 491 -23 1005 -24 926
-1 995 -10 2324 -272 277 -54 525 -99 553 -99 72 0 136 19 158 47 21 27 50
142 50 201 0 108 -190 325 -373 426 -130 71 -233 92 -497 101 -102 3 -207 8
-235 10 -198 18 -695 32 -960 28 l-250 -4 35 28 c19 15 59 50 90 77 110 97
150 117 247 128 196 20 515 -21 1018 -131 93 -21 99 -20 109 14 11 38 -66 70
-344 145 -142 38 -313 87 -382 109 -162 51 -260 71 -355 71 -161 0 -268 -46
-396 -169 l-89 -86 -127 5 c-69 3 -198 5 -286 5 -154 0 -162 -1 -219 -28 -74
-34 -131 -81 -174 -141 l-33 -46 28 0 c15 0 89 4 163 10 442 32 609 42 618 36
5 -3 7 -20 3 -38 l-7 -33 -104 -17 c-263 -41 -427 -52 -770 -52 -605 0 -1088
67 -2060 283 -361 80 -635 142 -637 145 -5 4 211 642 252 746 47 118 98 220
179 358 106 181 113 195 167 318 249 573 564 1052 959 1457 187 192 302 294
512 455 209 160 269 233 284 344 7 49 -10 147 -33 191 -8 16 -12 31 -10 34 3
2 116 -39 252 -92 136 -53 252 -94 258 -92 18 7 244 338 278 405 68 137 82
267 65 622 -7 156 -6 173 7 160 9 -8 74 -85 146 -170 88 -104 145 -182 172
-235 60 -117 84 -145 120 -145 40 0 76 20 123 69 l40 41 85 -1 c320 -2 569
181 615 454 32 185 -7 344 -190 783 l-13 31 37 -7 c51 -9 378 -225 459 -303
88 -84 108 -123 107 -212 -1 -50 -8 -89 -27 -139 -15 -37 -27 -72 -27 -76 0
-5 47 -46 105 -93 l105 -86 -58 -16 c-151 -42 -231 -69 -269 -91 -37 -21 -233
-219 -233 -235 0 -12 134 -33 210 -33 250 1 459 153 549 398 15 41 30 78 33
81 7 8 104 -40 213 -105 137 -82 213 -97 292 -59 46 22 89 75 115 144 25 65
53 198 127 601 56 309 75 392 97 435 l28 54 13 -45 c121 -398 177 -826 129
-984 -31 -103 -104 -199 -203 -268 -24 -16 -49 -41 -57 -56 -20 -41 -40 -132
-30 -142 5 -5 39 -20 77 -35 73 -27 140 -32 242 -15 33 5 113 14 179 19 132
10 158 21 188 82 23 44 23 78 -3 352 -12 125 -19 230 -16 234 6 5 776 -113
783 -120 1 -1 -31 -168 -71 -371 l-72 -369 107 -141 c58 -78 125 -169 149
-203 l41 -63 48 30 c61 37 88 66 127 137 24 44 44 64 90 92 32 20 68 49 79 64
22 30 21 18 27 435 0 49 -38 161 -221 642 -166 435 -213 576 -308 915 -56 198
-75 281 -66 283 15 4 106 -41 121 -60 38 -47 446 -862 527 -1053 148 -347 209
-579 209 -790 0 -201 -47 -344 -163 -497 -48 -63 -53 -76 -76 -184 -13 -64
-23 -118 -21 -120 6 -6 343 133 411 169 89 46 161 121 180 187 20 68 20 85 -3
184 -23 94 -28 129 -36 251 -3 50 -8 107 -12 129 l-5 38 78 -53 c44 -29 142
-100 219 -158 77 -58 178 -132 224 -163 l85 -58 75 0 c99 0 104 4 95 68 -6 49
-11 56 -113 155 -231 225 -405 321 -622 342 l-74 7 -240 572 c-257 612 -342
796 -461 995 -272 457 -676 892 -996 1075 -27 15 -48 22 -48 16z m-2439
-10431 c40 -33 311 -208 614 -397 66 -41 199 -119 295 -175 308 -176 310 -178
325 -260 l7 -34 -69 -6 c-170 -17 -399 0 -521 37 -250 75 -427 234 -582 521
-48 90 -170 366 -170 386 0 10 11 2 101 -72z m-4359 -244 c25 -10 -120 -470
-218 -695 -63 -143 -96 -195 -144 -228 -61 -41 -154 -23 -518 105 -89 31 -159
60 -155 64 19 19 1009 759 1015 759 3 0 13 -2 20 -5z m8388 -3636 c198 -147
268 -204 257 -210 -25 -15 -368 -99 -502 -124 -198 -36 -358 -48 -549 -42 -93
4 -171 9 -174 11 -3 3 6 14 19 25 13 11 166 139 339 285 173 146 320 263 327
261 6 -2 134 -95 283 -206z m9654 -3216 c-8 -70 -59 -217 -105 -303 -185 -343
-525 -642 -757 -666 -109 -12 -106 -4 71 161 88 83 192 188 231 235 38 47 95
114 124 150 49 58 433 470 439 470 1 0 -1 -21 -3 -47z"/>
<path d="M32015 42470 c-38 -10 -151 -53 -250 -95 -396 -170 -597 -278 -835
-451 -372 -270 -542 -448 -637 -664 l-32 -75 -104 -6 c-241 -14 -417 -89 -579
-247 -118 -115 -202 -251 -267 -436 -69 -197 -74 -355 -14 -539 l15 -49 25 24
c26 24 138 190 213 316 33 57 69 96 160 177 154 137 176 151 260 165 120 20
309 -18 429 -87 194 -111 306 -273 355 -510 39 -190 69 -234 164 -241 47 -3
72 2 137 27 111 43 167 87 200 156 26 52 27 62 22 148 -4 71 -14 120 -45 212
-102 307 -267 533 -524 717 -40 29 -85 61 -98 71 -50 35 89 -38 225 -119 115
-68 253 -134 281 -134 4 0 5 43 2 95 l-4 94 -131 259 -131 260 92 77 c245 207
542 365 816 435 203 52 499 66 715 35 220 -31 488 -111 693 -206 47 -21 86
-39 87 -39 4 0 37 122 33 124 -80 58 -624 383 -724 432 -182 89 -388 117 -549
74z"/>
<path d="M33421 41880 c-7 -34 -11 -63 -9 -65 7 -6 541 -175 658 -208 69 -20
240 -66 380 -102 609 -159 1244 -371 1823 -609 718 -296 1491 -691 2147 -1099
1145 -712 2228 -1595 3352 -2735 988 -1003 1779 -1979 2595 -3202 325 -487
393 -597 1063 -1697 313 -515 324 -531 347 -520 12 5 23 13 23 17 0 4 -27 88
-59 188 -62 191 -89 246 -359 752 -828 1552 -1571 2691 -2334 3583 -405 473
-1323 1449 -2293 2437 -613 625 -920 904 -1319 1205 -674 506 -1412 897 -2201
1165 -412 140 -1303 381 -2815 764 -480 121 -592 144 -808 166 -56 5 -120 13
-141 16 l-38 6 -12 -62z"/>
<path d="M16501 41596 c-46 -130 -92 -285 -217 -741 -165 -602 -252 -882 -359
-1150 -57 -144 -187 -417 -252 -529 -112 -194 -138 -275 -130 -401 6 -98 33
-172 97 -268 53 -80 144 -171 185 -187 15 -6 46 -10 70 -10 49 0 75 23 96 87
13 40 11 67 -21 348 -13 116 -20 221 -17 270 6 107 48 250 304 1040 56 171
126 398 158 505 31 107 65 226 76 263 20 67 21 68 52 65 l32 -3 6 -130 c4 -71
10 -204 13 -295 4 -91 9 -196 11 -235 3 -38 7 -135 10 -215 3 -80 8 -194 10
-255 3 -60 12 -272 20 -470 8 -198 17 -394 20 -435 2 -41 7 -152 11 -245 l6
-170 -85 -18 c-135 -27 -218 -56 -248 -86 -32 -33 -50 -107 -48 -203 l2 -66
86 -31 c128 -45 174 -54 254 -49 84 5 185 46 221 88 30 36 81 193 102 311 26
150 12 1014 -21 1309 -3 25 -12 108 -20 185 -26 230 -63 499 -120 875 -117
766 -108 717 -171 857 -32 70 -35 73 -68 73 -34 0 -34 -1 -65 -84z"/>
<path d="M31605 40670 c-66 -4 -168 -11 -227 -15 l-107 -7 6 -32 c22 -127 55
-232 80 -258 38 -40 90 -37 302 16 97 25 217 52 266 60 50 8 106 18 125 21 19
3 116 9 216 12 452 15 744 -66 1514 -417 757 -345 1258 -703 1627 -1163 275
-341 717 -1078 952 -1583 178 -384 562 -1306 839 -2014 434 -1110 672 -1775
1237 -3460 508 -1513 618 -1825 1055 -3005 301 -813 353 -956 431 -1185 211
-619 352 -1324 434 -2165 2 -27 7 -75 10 -105 3 -30 14 -165 25 -300 11 -135
26 -272 35 -304 38 -145 137 -273 286 -373 92 -62 181 -112 193 -110 13 3 7
109 -10 197 -16 79 -495 2337 -519 2450 -8 36 -53 250 -100 475 -159 756 -281
1250 -480 1940 -260 903 -602 1906 -1005 2950 -34 88 -201 531 -372 985 -916
2439 -1145 3008 -1498 3725 -698 1416 -1553 2455 -2500 3035 -559 343 -1127
526 -1880 604 -261 28 -723 41 -935 26z"/>
<path d="M29951 40534 c-34 -10 -71 -40 -174 -141 -140 -136 -187 -192 -315
-374 -348 -497 -551 -1034 -623 -1654 -20 -163 -17 -577 5 -755 63 -526 227
-1040 470 -1475 l61 -110 6 525 c4 289 12 579 18 645 68 701 273 1285 639
1825 153 226 266 362 497 600 162 167 175 187 175 287 0 136 -102 327 -248
465 -106 100 -173 133 -317 157 -136 22 -137 22 -194 5z"/>
<path d="M35584 40395 c-7 -19 -14 -38 -13 -42 0 -4 62 -57 137 -117 123 -99
401 -286 1222 -826 480 -316 1302 -866 1480 -990 1065 -746 2082 -1705 2987
-2815 577 -709 1045 -1439 1482 -2315 212 -426 358 -754 724 -1630 91 -217
185 -441 210 -497 78 -176 148 -262 251 -309 52 -23 144 -50 150 -43 5 6 -12
186 -25 259 -16 101 -507 1268 -820 1950 -68 149 -312 638 -391 783 -813 1504
-1867 2834 -3148 3974 -908 808 -1999 1549 -3440 2335 -485 265 -510 277 -635
298 -152 27 -153 26 -171 -15z"/>
<path d="M17050 39335 l-23 -25 38 -87 c37 -85 46 -95 224 -276 291 -295 485
-470 1096 -986 198 -168 392 -332 430 -366 117 -102 122 -105 183 -105 l54 0
-4 64 c-5 78 -7 81 -179 278 -249 283 -541 571 -859 843 -325 279 -748 600
-858 650 -41 19 -76 35 -77 35 -1 0 -12 -11 -25 -25z"/>
<path d="M20656 38555 c-59 -35 -95 -65 -331 -275 -454 -404 -659 -565 -1464
-1148 l-303 -220 -132 81 c-290 178 -330 200 -402 223 -138 44 -270 29 -419
-48 -44 -23 -118 -61 -165 -85 -47 -24 -174 -75 -283 -113 -225 -78 -268 -100
-327 -167 -71 -81 -71 -81 -1 -170 117 -146 306 -362 323 -368 39 -14 39 -28
-1 280 -11 83 -17 153 -13 157 9 9 507 204 617 242 102 35 133 32 325 -39 227
-83 460 -176 460 -183 0 -4 -9 -36 -20 -72 -11 -36 -23 -95 -26 -133 -6 -58
-4 -70 12 -88 28 -32 56 -39 204 -55 164 -17 359 -63 440 -104 33 -16 62 -30
65 -30 11 0 -7 113 -26 169 -41 117 -13 282 69 414 13 20 97 99 185 175 229
194 476 412 663 584 159 146 232 225 407 441 49 59 91 107 94 107 10 0 -6
-252 -23 -350 -44 -260 -150 -500 -316 -722 -139 -184 -399 -423 -647 -594 -7
-5 159 -200 193 -227 114 -89 325 -130 407 -79 60 37 266 298 355 448 133 227
214 496 245 818 15 161 4 805 -17 1013 -5 51 -54 141 -80 150 -5 2 -36 -13
-68 -32z"/>
<path d="M26542 38383 c-71 -93 -245 -321 -387 -508 -418 -550 -605 -775 -850
-1020 -678 -679 -1399 -1053 -2440 -1264 -270 -55 -841 -145 -856 -135 -5 3
-9 18 -9 33 0 15 -14 56 -31 89 -33 67 -78 109 -169 159 -108 60 -447 231
-585 296 -77 36 -248 116 -380 178 -205 96 -248 113 -292 113 -44 1 -56 -3
-83 -29 -27 -25 -76 -113 -68 -120 2 -2 53 -27 113 -58 120 -60 135 -72 159
-131 50 -121 129 -167 355 -207 138 -24 159 -33 241 -99 128 -105 278 -157
578 -204 84 -13 155 -26 158 -28 2 -3 -44 -72 -102 -153 -58 -82 -108 -153
-110 -159 -6 -16 131 -157 182 -189 61 -38 148 -61 206 -54 26 3 90 20 142 36
66 21 138 35 238 45 162 17 622 94 775 131 146 35 270 83 499 194 521 254 945
551 1363 956 246 239 403 425 756 893 167 223 191 251 202 235 7 -9 13 -24 13
-33 0 -20 -66 -136 -238 -415 -497 -809 -830 -1203 -1336 -1580 -794 -591
-1254 -865 -1771 -1052 -82 -30 -169 -65 -192 -79 -51 -30 -117 -103 -130
-146 l-11 -33 -1 33 c-1 18 15 81 35 140 33 97 36 115 32 192 -6 104 -31 164
-100 233 -49 48 -162 111 -225 123 -40 8 -40 12 -13 -162 20 -134 44 -452 38
-516 l-3 -36 -137 119 c-76 65 -142 119 -147 119 -5 0 -12 -39 -16 -87 -4 -49
-13 -91 -19 -95 -25 -17 -45 -5 -86 54 -41 57 -44 66 -47 136 -1 41 -7 90 -13
108 -16 49 -78 98 -154 124 -373 124 -669 3 -741 -302 -21 -89 -20 -206 3
-240 18 -27 105 -108 117 -108 14 0 97 77 116 106 12 20 21 58 25 105 7 101
11 118 41 163 l25 38 121 -4 c137 -5 193 -23 204 -66 10 -43 -5 -285 -21 -336
-27 -82 -30 -79 108 -120 68 -20 150 -39 183 -42 53 -6 62 -4 88 19 17 13 50
66 75 116 24 50 47 91 51 91 11 0 138 -306 158 -384 36 -136 36 -264 1 -387
l-10 -37 -240 70 -240 70 -20 -24 c-11 -12 -19 -25 -20 -28 0 -3 27 -25 61
-50 189 -137 276 -337 229 -522 -15 -60 -51 -148 -60 -148 -4 0 -31 4 -59 10
-126 24 -229 31 -271 20 -34 -9 -44 -18 -57 -47 -18 -45 -13 -94 28 -287 34
-155 34 -151 -11 -381 l-27 -140 -34 -3 -34 -3 -52 168 c-66 211 -69 237 -48
364 23 134 17 290 -14 369 -12 32 -47 86 -82 128 l-61 72 -78 -61 c-43 -33
-98 -86 -122 -117 -23 -31 -65 -82 -93 -112 -111 -121 -98 -188 59 -311 353
-277 391 -590 106 -881 -95 -96 -119 -108 -230 -108 l-64 0 -56 59 c-55 57
-116 159 -146 243 -25 70 -59 243 -114 568 -82 488 -92 522 -171 601 -99 99
-234 120 -384 60 -44 -17 -132 -57 -195 -89 -105 -52 -115 -59 -112 -82 2 -14
5 -26 6 -27 1 -1 74 9 161 22 242 37 292 32 348 -34 43 -51 48 -93 49 -379 1
-496 48 -735 180 -912 62 -82 185 -206 254 -256 158 -113 237 -123 499 -60 88
21 203 51 255 67 86 25 113 28 285 32 216 6 322 22 474 73 238 79 438 217 615
424 53 63 53 72 6 -125 -17 -71 -42 -153 -55 -182 -78 -172 -197 -253 -477
-325 -133 -34 -197 -38 -473 -28 -71 3 -196 1 -277 -4 l-148 -8 0 -43 0 -42
103 -7 c62 -4 202 -27 348 -58 235 -49 250 -51 409 -52 161 0 167 1 259 32 52
18 94 31 95 30 49 -130 279 -275 609 -383 194 -63 290 -78 472 -72 108 4 192
12 259 27 339 73 676 249 897 469 90 91 197 226 186 237 -9 9 -280 87 -427
124 -609 150 -1003 342 -1333 648 -82 76 -93 83 -175 108 -48 15 -91 31 -97
36 -13 11 -126 611 -117 619 4 4 48 9 97 12 576 38 1228 598 1381 1187 27 102
43 250 28 250 -5 0 -95 -31 -200 -69 -216 -79 -301 -103 -493 -137 -175 -31
-317 -32 -404 -3 -57 19 -147 67 -147 79 1 10 199 120 295 163 345 154 717
399 1085 715 262 226 676 634 899 887 577 656 1025 1383 1335 2167 79 200 101
280 115 413 24 230 25 214 -19 304 -22 44 -41 81 -44 81 -2 0 -63 -75 -134
-167z m-4049 -4610 c4 -3 21 -32 38 -65 38 -76 106 -148 180 -193 150 -92 343
-101 867 -43 106 11 195 18 198 15 8 -8 -78 -118 -161 -205 -142 -151 -322
-261 -504 -310 -132 -35 -355 -36 -508 -4 -55 12 -104 22 -107 22 -3 0 -6 -15
-6 -34 0 -24 18 -65 61 -138 92 -155 88 -146 41 -117 -95 57 -159 116 -187
174 -26 53 -28 65 -28 173 1 65 14 257 29 429 l28 312 25 -6 c14 -3 29 -8 34
-10z m-285 -1619 c63 -50 102 -99 102 -127 0 -30 -58 -134 -98 -176 -69 -73
-88 -50 -86 104 1 100 13 245 21 245 2 0 30 -21 61 -46z m738 -626 c147 -227
362 -420 587 -527 157 -74 374 -133 540 -147 42 -4 77 -10 77 -14 0 -9 -178
-66 -265 -84 -191 -41 -460 -48 -640 -16 -55 10 -192 34 -304 54 -112 19 -205
37 -207 39 -2 2 19 90 47 197 76 293 101 411 94 447 -8 46 -50 91 -91 99 -19
3 -34 10 -34 14 0 4 11 39 25 76 14 38 28 76 31 84 3 9 22 -18 49 -67 24 -45
65 -115 91 -155z"/>
<path d="M14934 38420 c-54 -35 -254 -303 -365 -489 -80 -135 -159 -302 -198
-421 -79 -244 -92 -372 -86 -839 l4 -363 -37 5 c-203 32 -539 33 -742 2 -555
-85 -995 -360 -1353 -847 -32 -42 -57 -80 -57 -84 0 -4 44 -4 98 -2 90 5 105
9 183 48 46 24 159 92 252 152 322 210 472 261 703 237 131 -14 163 -7 312 72
118 63 198 89 264 88 116 -1 180 -48 282 -204 97 -147 154 -209 228 -246 32
-16 60 -29 63 -29 11 0 4 118 -10 172 -8 31 -37 113 -65 184 -50 127 -51 143
-14 144 6 0 32 -47 58 -104 64 -143 90 -188 148 -251 90 -99 207 -136 357
-114 150 23 179 19 350 -44 85 -32 159 -56 165 -54 21 8 118 211 123 257 4 43
0 51 -78 170 -102 153 -241 298 -344 358 -38 22 -108 53 -155 68 -140 45 -204
101 -254 223 -39 97 -57 201 -55 319 3 168 32 280 171 647 36 94 75 208 88
255 36 136 31 132 73 75 20 -28 62 -108 93 -180 219 -497 455 -801 800 -1031
128 -86 145 -102 176 -169 21 -47 23 -66 26 -293 l4 -243 22 7 c54 16 201 100
245 140 79 71 94 112 92 259 -2 116 0 125 22 150 21 24 30 28 79 26 31 0 102
-12 159 -26 96 -23 103 -23 116 -7 37 47 38 47 -55 129 -49 43 -142 114 -207
158 -312 210 -537 394 -780 639 -298 299 -515 591 -691 925 -52 101 -100 151
-145 151 -19 0 -48 -9 -65 -20z"/>
<path d="M11986 37978 c-240 -23 -478 -111 -659 -243 -53 -39 -81 -67 -101
-105 -23 -43 -26 -54 -15 -61 67 -44 84 -50 163 -59 289 -33 566 -148 863
-357 129 -91 263 -131 347 -103 28 9 111 86 337 313 l299 300 -22 24 c-60 64
-423 210 -630 253 -199 41 -410 55 -582 38z"/>
<path d="M10410 37959 c-267 -16 -505 -76 -709 -179 -167 -83 -223 -129 -371
-301 l-113 -130 19 -40 c16 -38 20 -40 48 -35 99 21 193 28 291 22 183 -10
325 -48 525 -142 106 -49 118 -53 152 -44 49 14 447 320 610 470 60 54 169
209 168 236 -1 15 -174 124 -211 133 -51 14 -268 19 -409 10z"/>
<path d="M38459 37354 c-21 -22 -22 -27 -9 -47 7 -12 142 -200 300 -417 775
-1068 1046 -1483 1565 -2390 240 -420 671 -1266 935 -1840 1068 -2314 1763
-4670 2115 -7175 19 -137 37 -263 40 -280 7 -47 53 -436 70 -590 15 -142 17
-158 35 -345 6 -58 13 -125 15 -150 14 -132 60 -763 70 -965 3 -60 8 -139 10
-175 2 -36 7 -148 10 -250 4 -102 8 -207 10 -235 25 -392 25 -2918 0 -3077 -2
-13 -6 -108 -9 -213 -4 -104 -9 -208 -11 -230 -2 -22 -7 -101 -10 -175 -3 -74
-8 -160 -10 -190 -3 -30 -7 -91 -10 -135 -26 -414 -71 -880 -140 -1470 -55
-463 -49 -417 -80 -665 -14 -113 -27 -221 -29 -240 -3 -19 -9 -71 -15 -115 -5
-44 -12 -100 -15 -125 -60 -498 -223 -1601 -296 -2000 -11 -58 -33 -184 -49
-280 -16 -96 -62 -357 -100 -580 -39 -223 -76 -435 -83 -472 -14 -82 -1 -155
38 -211 83 -123 247 -68 325 109 13 28 45 192 85 427 35 210 93 553 129 762
57 332 123 731 210 1260 23 141 50 319 95 620 117 796 262 2132 330 3055 11
151 22 304 25 340 4 59 28 453 40 660 2 47 7 157 10 245 3 88 8 174 10 190 19
140 27 1759 12 2445 -5 206 -10 377 -12 380 -1 3 -6 106 -9 230 -4 124 -9 263
-11 310 -2 47 -7 150 -10 230 -3 80 -8 181 -10 225 -2 44 -7 139 -10 210 -6
150 -14 305 -20 420 -2 44 -7 127 -10 185 -84 1564 -457 3543 -990 5250 -432
1383 -1053 2827 -1710 3975 -657 1149 -1467 2226 -2375 3159 -108 111 -363
337 -416 369 -6 3 -22 -5 -35 -19z"/>
<path d="M8650 37310 c-157 -27 -479 -104 -622 -149 -56 -18 -74 -30 -117 -77
-65 -71 -116 -157 -186 -314 -63 -140 -144 -266 -328 -510 -114 -152 -123
-167 -115 -192 6 -16 15 -28 21 -28 25 0 1203 313 1215 322 6 6 44 65 83 132
40 66 133 225 208 351 155 261 181 315 181 380 0 59 -13 83 -55 101 -48 19
-95 17 -285 -16z"/>
<path d="M17670 36646 c0 -2 28 -60 61 -128 34 -67 72 -146 84 -174 l23 -52
-40 -38 c-92 -90 -101 -170 -39 -365 60 -189 63 -266 11 -332 l-20 -25 -151
39 c-223 58 -237 51 -289 -136 -28 -102 -48 -139 -111 -215 -62 -75 -146 -131
-231 -155 -66 -18 -225 -24 -308 -10 l-45 7 30 -32 c36 -38 145 -112 200 -135
22 -9 69 -19 105 -22 86 -7 138 14 266 104 292 208 528 324 774 380 55 12 127
17 270 18 179 2 291 14 290 34 0 3 -11 51 -24 106 -14 55 -22 102 -20 104 2 3
161 -19 352 -48 191 -29 356 -54 366 -55 13 -1 21 8 26 26 7 24 3 30 -62 73
-49 33 -68 51 -64 61 3 9 6 22 6 30 0 12 15 14 83 10 45 -3 136 -8 202 -11
294 -15 389 -61 687 -334 76 -69 151 -131 166 -138 47 -21 88 -16 106 12 l17
26 -137 150 c-166 181 -244 247 -355 298 -185 85 -489 170 -744 208 -149 22
-531 22 -671 1 -77 -12 -104 -12 -170 -1 -43 8 -80 15 -82 17 -2 2 33 62 77
133 93 149 95 136 -39 193 -114 48 -179 97 -216 161 -53 93 -78 111 -220 158
-71 24 -137 48 -146 53 -10 5 -18 7 -18 4z"/>
<path d="M17165 36105 c-38 -19 -101 -58 -140 -87 -38 -29 -144 -107 -235
-172 -223 -162 -387 -287 -500 -385 -52 -45 -115 -91 -140 -103 -57 -28 -127
-28 -201 0 -67 25 -200 46 -239 37 -24 -5 -33 -17 -58 -78 -55 -132 -67 -258
-33 -332 18 -39 69 -92 144 -149 35 -27 42 -28 102 -23 234 22 547 213 743
454 111 136 163 184 266 243 155 89 238 175 314 325 65 129 84 192 76 252 -3
29 -11 53 -18 53 -6 0 -42 -16 -81 -35z"/>
<path d="M18880 35359 c-68 -42 -166 -151 -205 -229 -55 -110 -169 -246 -236
-280 -91 -47 -275 -79 -526 -90 -228 -11 -316 -27 -420 -76 -135 -64 -228
-174 -299 -356 -51 -128 -104 -232 -114 -222 -14 15 -48 139 -70 256 -12 62
-26 120 -31 130 -13 25 -100 82 -108 71 -3 -5 -18 -25 -33 -44 -25 -33 -49
-109 -78 -256 l-13 -62 -71 48 c-104 70 -152 96 -237 130 -204 82 -363 53
-515 -91 -61 -58 -154 -177 -154 -197 0 -10 297 17 375 34 194 43 237 48 320
36 110 -15 215 -68 330 -167 105 -90 159 -118 232 -117 103 1 173 65 281 255
126 224 201 303 288 303 58 0 104 -39 176 -146 39 -59 78 -102 126 -141 l71
-57 63 68 c46 50 69 85 87 132 70 187 181 276 375 300 147 18 207 42 267 106
47 49 66 87 83 167 13 63 79 186 100 186 24 0 80 -48 119 -103 171 -239 398
-306 712 -210 50 15 106 27 125 27 40 0 144 -46 290 -129 137 -77 172 -85 373
-85 l170 0 -8 -110 c-3 -60 -4 -110 0 -110 15 0 70 34 106 67 56 51 84 112
119 258 16 69 37 141 45 162 30 72 31 72 124 -26 103 -107 131 -118 208 -80
46 23 48 26 46 63 -2 21 -21 77 -43 123 -70 144 -177 235 -420 359 -109 55
-118 58 -187 58 -40 0 -76 -3 -79 -7 -12 -12 20 -124 48 -165 78 -113 108
-239 89 -368 -6 -43 -16 -83 -21 -88 -5 -5 -53 -4 -117 3 -59 6 -134 8 -165 4
-125 -13 -200 39 -238 166 -39 133 -121 202 -236 202 -48 0 -72 -7 -160 -51
-132 -66 -206 -80 -299 -57 -94 23 -148 58 -254 166 -250 252 -322 294 -411
240z"/>
<path d="M12880 35086 c-1 -55 84 -882 92 -890 10 -12 62 12 106 49 61 51 87
130 98 298 8 128 14 148 51 170 l31 18 32 -63 c59 -113 171 -312 209 -368 25
-38 55 -66 96 -92 33 -20 63 -37 67 -37 4 -1 24 29 44 65 l37 66 -22 122 c-72
392 -146 496 -392 546 -57 12 -111 31 -160 58 -78 43 -124 57 -226 71 -60 7
-63 7 -63 -13z"/>
<path d="M13980 34752 c0 -4 23 -30 51 -57 105 -103 187 -243 208 -360 21
-110 12 -206 -31 -337 -12 -37 -20 -70 -17 -72 6 -5 323 -25 328 -20 2 2 -7
68 -22 146 -14 79 -24 144 -22 146 1 2 15 4 31 5 24 2 32 -6 66 -63 23 -38 60
-131 90 -225 72 -225 77 -235 133 -265 l47 -25 24 30 c88 109 76 340 -29 550
-98 198 -316 395 -530 479 -117 46 -327 90 -327 68z"/>
<path d="M6208 34563 c-87 -98 -189 -423 -242 -766 -40 -258 -50 -395 -50
-662 0 -321 28 -491 94 -575 20 -25 20 -25 18 435 -3 595 7 691 132 1263 33
152 63 287 65 300 6 27 3 28 -17 5z"/>
<path d="M18831 34257 c-38 -8 -58 -23 -135 -101 -92 -93 -202 -170 -436 -304
-143 -83 -207 -128 -296 -212 -126 -119 -140 -124 -379 -127 -118 -1 -259 -10
-345 -21 l-145 -18 0 -49 0 -50 80 -18 c80 -19 81 -19 186 3 95 19 116 21 195
11 122 -15 288 -14 351 3 101 27 187 85 251 169 17 23 72 49 289 133 147 57
273 104 280 104 8 0 73 -49 146 -109 98 -81 135 -107 144 -99 34 28 54 81 64
165 15 140 26 148 271 213 134 35 171 41 260 41 171 0 456 -50 548 -96 94 -48
120 -101 120 -245 0 -107 9 -137 52 -177 30 -28 89 -53 127 -53 28 0 30 2 42
73 19 110 17 261 -4 325 -37 105 -161 204 -368 294 -198 85 -332 103 -545 72
-131 -19 -334 -21 -424 -5 -36 7 -99 26 -140 43 -96 39 -134 46 -189 35z"/>
<path d="M16209 33945 c-124 -43 -813 -341 -839 -362 -8 -7 63 -131 108 -187
69 -88 161 -122 270 -100 l30 6 -29 46 c-16 25 -29 56 -29 68 0 58 110 125
270 165 124 32 234 24 318 -20 105 -57 159 -131 231 -316 37 -97 101 -174 175
-212 41 -21 69 -28 141 -31 89 -4 175 10 175 28 0 36 -456 732 -540 823 -33
36 -68 62 -107 79 -86 38 -101 39 -174 13z"/>
<path d="M8882 33839 c-221 -38 -409 -193 -596 -493 -55 -88 -57 -90 -131
-122 -144 -62 -223 -136 -377 -349 -20 -27 -75 -97 -122 -154 -95 -116 -153
-222 -188 -346 -18 -67 -22 -103 -21 -220 0 -122 4 -155 31 -256 78 -299 248
-617 496 -929 172 -215 648 -674 829 -799 82 -56 187 -99 345 -142 85 -22 155
-39 157 -37 3 2 11 20 20 40 l15 37 -85 51 c-47 28 -124 69 -172 91 -149 67
-166 77 -278 164 -452 351 -792 774 -1000 1244 -106 239 -112 431 -19 620 85
173 281 300 461 301 59 0 64 -6 98 -110 34 -106 117 -306 185 -445 317 -653
850 -1208 1549 -1614 232 -135 279 -154 402 -165 l65 -6 22 45 22 45 -36 15
c-20 8 -38 15 -40 15 -9 0 -225 137 -314 199 -233 162 -423 325 -655 562 -183
188 -245 259 -485 564 -190 243 -273 361 -325 463 -85 169 -110 276 -109 462
3 402 144 715 414 919 43 32 147 93 230 136 84 42 150 78 148 80 -1 2 -40 22
-84 44 -152 75 -331 111 -452 90z"/>
<path d="M20857 33622 c-3 -4 -14 -59 -26 -122 -32 -180 -62 -244 -137 -290
l-33 -21 -148 26 c-219 38 -271 58 -363 138 -25 22 -68 51 -97 64 -132 61
-261 13 -493 -185 -161 -138 -252 -171 -389 -142 -56 12 -61 11 -102 -13 -76
-44 -312 -146 -354 -152 -29 -5 -65 1 -130 20 -207 62 -379 38 -655 -90 -63
-29 -133 -58 -155 -64 -57 -15 -143 -14 -201 4 -27 8 -65 15 -84 15 -34 0
-370 -100 -370 -110 0 -3 30 -24 68 -47 158 -97 274 -109 487 -50 186 52 243
60 395 60 121 0 148 -3 260 -33 215 -58 347 -47 456 36 l45 35 27 -63 c14 -35
60 -130 100 -212 90 -181 153 -256 216 -256 42 0 86 18 130 55 l30 24 -126
167 -127 167 77 61 c42 35 134 106 203 159 125 95 127 97 230 122 57 13 161
40 232 59 73 20 201 44 300 57 196 25 261 20 376 -27 156 -64 223 -54 491 75
113 54 292 138 398 186 202 92 221 106 269 193 l21 37 -63 44 -64 44 -46 -27
c-72 -43 -124 -57 -205 -57 -92 0 -159 19 -271 77 -60 31 -97 44 -126 44 -23
0 -44 -3 -46 -8z"/>
<path d="M9476 33493 l-39 -16 7 -206 c14 -430 39 -618 113 -846 62 -193 143
-326 348 -570 421 -502 651 -697 825 -699 27 -1 51 2 55 6 13 13 -30 61 -133
145 -432 356 -730 812 -903 1384 -44 148 -91 372 -115 549 -9 69 -23 139 -32
155 -22 44 -72 115 -80 114 -4 0 -24 -7 -46 -16z"/>
<path d="M14083 33413 c-37 -5 -37 -6 -22 -88 13 -71 18 -79 146 -232 57 -67
103 -124 103 -126 0 -2 -120 16 -267 40 -148 23 -271 43 -275 43 -5 0 -8 -8
-8 -17 0 -13 77 -57 293 -167 160 -82 364 -186 452 -231 88 -45 309 -158 490
-250 182 -92 411 -209 510 -260 99 -51 360 -184 580 -295 220 -112 415 -212
433 -223 18 -10 36 -17 39 -14 8 8 -16 75 -50 141 -58 109 -172 205 -387 326
-52 29 -110 64 -128 78 -72 55 -199 239 -225 329 -8 28 -23 101 -32 162 l-18
112 -40 -6 c-22 -4 -97 -7 -166 -7 -221 2 -316 40 -482 198 -173 163 -255 212
-733 438 -116 55 -133 59 -213 49z"/>
<path d="M15975 32947 c-23 -43 -18 -61 42 -165 93 -161 206 -309 469 -613
272 -315 358 -432 511 -690 117 -196 128 -225 128 -334 0 -85 -2 -94 -34 -146
-18 -31 -50 -74 -71 -96 l-37 -41 30 -6 c81 -16 93 -11 179 76 90 92 133 152
150 213 6 22 12 122 13 225 2 247 37 476 121 781 40 147 41 156 14 164 -15 5
-44 -11 -111 -61 -71 -53 -93 -65 -99 -53 -4 8 -33 61 -63 119 -49 94 -59 106
-92 118 -20 6 -141 33 -268 58 -325 64 -470 114 -606 206 -67 46 -162 146
-206 217 -21 33 -41 61 -45 61 -4 0 -15 -15 -25 -33z"/>
<path d="M18298 32383 c-33 -39 -42 -70 -43 -148 0 -72 4 -88 34 -149 62 -126
159 -197 288 -210 170 -18 269 -87 386 -269 29 -45 68 -94 86 -109 62 -53 137
-45 244 26 112 75 164 82 403 56 66 -7 151 -11 188 -8 60 4 72 8 92 32 17 19
24 39 24 68 0 49 -40 270 -51 282 -4 5 -176 -55 -398 -139 l-391 -148 -146
139 c-81 76 -197 185 -258 241 -61 56 -157 151 -213 211 -56 60 -117 117 -136
126 -45 21 -90 20 -109 -1z"/>
<path d="M12772 32354 c-85 -43 -170 -148 -202 -252 -40 -129 -35 -249 17
-359 30 -66 69 -98 141 -119 184 -54 448 121 470 311 7 66 -25 120 -121 208
-113 102 -259 227 -266 227 -3 0 -21 -8 -39 -16z"/>
<path d="M14842 32250 c-46 -19 -54 -65 -57 -320 -1 -129 2 -277 7 -329 36
-353 252 -675 549 -816 92 -44 174 -61 354 -74 391 -29 735 21 1010 149 94 43
153 86 263 192 l80 76 -113 116 -114 116 -253 124 c-139 68 -352 170 -473 226
-337 157 -517 242 -780 370 -243 118 -311 148 -368 165 -57 17 -72 18 -105 5z
m666 -834 c27 -39 64 -99 81 -133 l31 -63 -99 0 -100 0 -3 63 c-2 34 -2 102 0
150 3 86 4 88 22 72 11 -10 41 -49 68 -89z"/>
<path d="M13515 31514 c-208 -237 -265 -308 -254 -315 8 -5 53 -30 101 -56 48
-25 108 -63 133 -84 55 -46 124 -72 242 -95 94 -17 189 -15 234 6 46 21 51 43
95 387 l16 132 -132 148 c-73 81 -140 156 -149 166 -16 16 -32 1 -286 -289z"/>
<path d="M40253 31650 c142 -339 371 -962 525 -1430 695 -2106 1013 -4208 941
-6225 -4 -115 -6 -211 -4 -213 8 -9 98 423 145 703 96 563 138 1019 144 1575
8 667 -45 1254 -170 1885 -210 1055 -603 2072 -1217 3145 -137 240 -376 633
-397 654 -6 6 9 -36 33 -94z"/>
<path d="M18145 31544 c-45 -9 -95 -12 -140 -8 -60 5 -371 -19 -381 -29 -8 -8
291 -255 374 -310 48 -32 188 -120 312 -195 124 -75 279 -169 344 -210 286
-178 374 -193 457 -79 17 23 45 70 62 105 40 79 39 78 297 36 120 -20 178 -25
260 -22 142 6 200 29 291 115 38 36 69 69 69 74 0 7 -117 147 -164 197 -10 10
-28 6 -97 -24 -215 -93 -261 -96 -424 -28 -142 59 -218 84 -261 84 -47 0 -94
-45 -155 -149 -58 -97 -95 -141 -120 -141 -29 0 -88 79 -105 140 -8 30 -17 60
-19 67 -3 8 -22 2 -57 -17 -101 -56 -170 -39 -295 73 -29 25 -59 50 -69 55
-15 9 -16 15 0 98 22 121 21 149 -6 168 -27 19 -79 19 -173 0z"/>
<path d="M14316 31307 c-40 -52 -56 -101 -56 -170 0 -118 16 -144 185 -312
141 -139 155 -157 199 -245 26 -52 66 -114 89 -137 58 -60 104 -73 260 -73
116 0 140 -3 222 -29 139 -45 210 -54 374 -49 173 6 299 32 556 114 94 30 235
72 315 95 80 22 159 47 176 55 17 9 54 42 82 74 l51 58 -21 27 c-18 24 -25 26
-62 19 -22 -3 -75 -23 -116 -44 -464 -232 -993 -247 -1515 -43 -199 78 -498
242 -587 322 -73 65 -92 109 -94 211 -1 93 -11 160 -25 160 -4 0 -19 -15 -33
-33z"/>
<path d="M13669 30645 c-18 -36 -34 -87 -37 -114 -4 -42 -1 -52 27 -83 38 -44
114 -78 261 -118 167 -45 219 -73 250 -135 55 -110 88 -134 227 -165 48 -11
140 -33 203 -49 242 -62 420 -62 630 -1 58 16 179 42 269 57 99 16 156 29 145
34 -27 10 -143 21 -394 39 -283 21 -391 46 -709 170 -97 37 -250 91 -341 120
-91 28 -192 67 -226 85 -64 36 -226 172 -244 205 -6 11 -15 20 -20 20 -5 0
-23 -29 -41 -65z"/>
<path d="M22759 29603 c-188 -302 -370 -591 -403 -644 l-60 -97 -101 5 c-85 4
-115 1 -200 -21 -150 -39 -291 -112 -374 -194 -91 -89 -99 -124 -76 -309 9
-70 18 -133 20 -140 2 -7 7 -65 10 -130 8 -143 16 -178 63 -267 70 -133 220
-253 342 -272 l45 -7 -43 47 c-67 73 -96 145 -95 236 1 41 8 93 16 115 l14 40
20 -45 c11 -25 57 -134 103 -242 l83 -197 31 6 c17 3 81 27 142 54 148 65 221
83 305 76 37 -3 83 -13 104 -21 35 -15 39 -15 71 5 19 11 43 34 55 50 19 28
20 37 14 197 -13 335 -48 436 -206 597 -107 110 -132 165 -127 283 4 108 24
152 167 367 174 263 275 360 489 475 64 34 146 84 182 110 74 55 188 171 242
245 47 65 112 185 101 186 -4 0 -26 2 -48 5 -71 8 -453 34 -498 34 l-44 0
-344 -547z m-557 -874 c-16 -30 -80 -155 -142 -279 -63 -124 -121 -238 -131
-253 l-17 -29 -86 142 c-48 78 -86 146 -84 151 4 11 481 328 486 324 2 -2 -10
-27 -26 -56z"/>
<path d="M20610 29783 c-51 -20 -82 -71 -117 -192 -35 -123 -86 -215 -158
-286 -75 -75 -131 -105 -293 -160 -98 -33 -406 -157 -420 -170 -3 -3 19 -65
24 -65 2 0 91 21 197 46 105 25 242 52 302 60 187 26 257 42 331 79 99 48 161
101 227 192 104 142 156 156 347 91 189 -65 382 -88 560 -69 95 10 317 54 327
65 10 9 -20 48 -43 57 -31 11 -227 46 -309 54 -433 43 -608 97 -826 256 -54
40 -114 57 -149 42z"/>
<path d="M20862 29248 c-3 -13 -23 -57 -44 -100 -76 -152 -206 -242 -448 -310
l-115 -33 55 -7 c30 -3 112 -6 181 -7 181 -1 279 26 414 115 79 52 127 54 250
9 210 -77 385 -53 658 87 l82 43 -38 3 c-20 2 -103 -6 -182 -17 -160 -23 -256
-26 -325 -10 -64 14 -206 86 -344 173 -66 42 -124 76 -129 76 -5 0 -12 -10
-15 -22z"/>
<path d="M16695 28696 c-77 -34 -240 -113 -362 -174 l-222 -112 16 -47 c9 -27
18 -51 22 -55 6 -7 328 24 426 42 33 6 94 20 135 32 146 40 241 18 425 -101
49 -32 109 -68 132 -80 51 -25 56 -34 82 -141 12 -46 29 -96 39 -111 9 -15 60
-65 113 -113 84 -74 99 -92 114 -138 39 -121 88 -150 257 -154 184 -4 218 -27
314 -204 30 -58 80 -141 109 -185 100 -151 425 -492 580 -610 123 -94 181
-151 275 -275 168 -219 264 -289 410 -298 l75 -4 -9 -88 c-19 -185 -6 -196
217 -192 178 3 213 -4 252 -49 33 -40 33 -100 2 -200 -42 -131 -42 -132 -12
-125 82 21 133 48 156 83 38 58 73 78 133 78 38 -1 65 -8 101 -29 28 -16 84
-47 125 -70 41 -23 95 -61 121 -86 46 -46 49 -52 83 -203 12 -54 84 -249 102
-279 8 -12 297 143 341 183 51 47 107 63 200 57 129 -9 244 -82 311 -200 31
-56 89 -106 142 -123 49 -16 152 -7 199 17 75 39 98 115 100 323 1 194 -25
221 -198 214 -562 -23 -849 54 -1622 437 l-268 133 -13 45 c-19 63 -135 209
-190 237 -36 18 -51 20 -107 14 -111 -12 -127 -10 -178 21 -35 22 -51 40 -62
69 -70 194 -112 273 -199 366 -111 120 -251 207 -447 279 -125 45 -174 77
-226 145 -70 93 -83 134 -84 275 -1 92 -6 138 -20 175 -41 115 -131 201 -247
236 -62 19 -84 21 -172 14 -192 -14 -240 -4 -307 64 -34 33 -51 61 -62 101 -9
30 -26 89 -38 130 -18 66 -27 81 -77 130 -46 44 -79 65 -170 104 -140 61 -275
149 -336 218 -26 29 -64 88 -87 130 -23 46 -54 88 -74 104 -37 28 -113 54
-154 54 -14 -1 -89 -29 -166 -64z"/>
<path d="M19849 28716 c-113 -32 -237 -137 -311 -263 -19 -32 -63 -97 -98
-143 -35 -47 -73 -107 -85 -135 -59 -134 -175 -520 -175 -583 0 -26 11 -50 41
-90 l42 -55 13 25 c7 13 31 73 54 134 104 276 171 375 339 498 48 35 116 89
151 120 36 31 89 68 118 83 46 22 62 25 118 20 87 -7 157 -43 318 -163 205
-153 307 -269 351 -399 30 -89 32 -475 3 -475 -6 0 -40 30 -77 68 -71 71 -96
115 -241 432 -75 163 -113 218 -177 252 -67 36 -119 41 -210 22 -384 -78 -673
-432 -673 -826 0 -53 5 -121 11 -150 36 -172 158 -309 314 -354 56 -16 189
-23 201 -11 3 3 -17 36 -45 73 -100 132 -107 245 -19 284 42 18 45 18 113 0
129 -34 250 -21 413 45 86 35 94 36 206 34 101 -1 118 -4 126 -19 28 -52 32
-50 -342 -160 -194 -57 -359 -106 -367 -110 -9 -5 16 -15 65 -26 114 -26 293
-24 399 5 375 102 643 428 719 876 l12 70 32 -65 c44 -88 57 -167 42 -244 -21
-108 -64 -184 -229 -406 -39 -52 -71 -98 -71 -102 0 -21 155 15 234 55 108 53
241 204 286 324 55 146 21 327 -90 488 -28 40 -144 114 -153 98 -2 -5 -14 -39
-27 -77 l-22 -68 -29 52 c-56 103 -145 213 -269 333 -138 134 -374 328 -488
402 -189 122 -381 170 -523 131z"/>
<path d="M12268 28608 c-14 -18 -32 -46 -40 -63 -51 -99 -57 -537 -13 -839 30
-201 99 -436 170 -576 33 -65 28 -69 -75 -71 -41 0 -82 -2 -90 -3 -8 -2 -82
-6 -165 -10 -82 -4 -175 -9 -205 -11 -30 -3 -149 -9 -265 -15 -249 -12 -278
-16 -330 -43 -65 -32 -597 -337 -755 -432 -350 -210 -558 -279 -812 -269
l-107 5 35 -61 36 -60 227 0 c276 0 354 9 518 60 71 22 193 51 273 65 227 40
305 71 382 153 26 27 60 76 76 108 36 71 62 96 125 124 27 12 203 57 393 100
595 137 580 132 698 237 33 29 63 53 68 53 4 0 216 -260 470 -577 581 -727
815 -1013 1068 -1308 394 -458 545 -672 720 -1027 189 -381 246 -493 527
-1048 324 -638 333 -658 579 -1280 101 -256 199 -501 217 -545 l32 -80 40 3
c22 2 43 7 47 10 4 4 12 46 19 94 17 112 9 150 -80 413 -97 284 -379 1076
-439 1230 -194 503 -362 816 -650 1205 -310 419 -1198 1509 -1913 2350 -339
399 -491 630 -594 905 -89 237 -111 429 -96 816 11 287 9 307 -37 377 l-29 43
-25 -33z"/>
<path d="M4275 28446 c-309 -50 -489 -200 -542 -449 -50 -236 82 -580 303
-788 57 -53 182 -144 189 -137 2 1 10 81 19 176 14 141 14 189 5 260 -16 119
-7 264 19 324 25 58 91 131 147 163 83 49 121 57 268 56 109 -1 137 1 131 11
-57 95 -182 274 -215 307 -76 79 -173 102 -324 77z"/>
<path d="M26486 28348 c-39 -422 -136 -934 -251 -1338 -349 -1217 -1037 -2140
-2038 -2735 -54 -32 -96 -63 -94 -69 12 -30 309 -501 316 -501 36 0 489 449
660 654 411 492 790 1119 1113 1841 41 91 79 176 85 190 10 22 12 17 13 -40 6
-228 7 -219 -154 -765 -63 -214 -158 -536 -211 -715 -53 -179 -111 -360 -130
-403 -151 -353 -443 -638 -895 -873 -88 -46 -152 -106 -170 -159 -17 -52 -7
-175 19 -247 38 -98 118 -158 212 -158 45 0 152 26 442 107 130 36 239 64 241
62 2 -2 43 -83 92 -179 49 -96 104 -189 122 -207 43 -44 90 -45 152 -3 25 16
63 42 85 56 34 23 223 104 366 157 25 10 59 32 76 50 67 69 407 522 520 692
223 336 362 749 468 1385 14 85 47 240 72 343 l47 189 46 -7 c25 -4 46 -8 48
-10 7 -7 6 -1070 -1 -1165 -20 -271 -78 -530 -207 -931 -49 -149 -83 -232
-179 -425 -136 -276 -120 -260 -271 -267 -118 -6 -191 -32 -257 -92 -57 -50
-99 -129 -118 -222 -8 -36 -16 -67 -18 -70 -6 -5 -305 153 -385 204 -84 54
-158 85 -184 78 -13 -4 -42 -16 -65 -28 -39 -18 -43 -24 -43 -56 0 -33 11 -47
132 -167 186 -183 278 -225 413 -188 65 17 145 29 145 21 0 -39 36 -170 56
-204 59 -101 201 -109 405 -22 91 39 172 47 255 26 34 -9 139 -50 235 -92
l174 -75 17 22 c17 23 18 22 19 -32 0 -30 2 -66 4 -80 2 -14 4 -57 5 -97 2
-39 6 -77 11 -85 7 -10 55 -13 231 -13 123 0 234 3 248 7 16 5 36 24 50 50 23
39 25 54 25 168 0 116 2 129 26 175 15 28 46 75 69 105 272 355 382 544 829
1420 157 308 199 382 233 413 34 31 47 37 67 32 14 -4 27 -8 29 -10 6 -5 -330
-2029 -338 -2038 -4 -5 -84 10 -178 32 -94 23 -176 41 -182 41 -7 0 -9 -8 -5
-21 20 -64 31 -170 24 -236 -18 -167 -116 -281 -358 -418 -47 -26 -124 -77
-171 -112 l-87 -66 10 -32 c11 -37 10 -37 167 -56 275 -33 592 58 893 256 l28
18 -36 -67 c-21 -37 -34 -70 -30 -74 4 -4 68 -6 143 -4 78 1 157 -2 184 -9 96
-22 166 -99 209 -226 21 -63 57 -118 135 -206 41 -46 57 -53 102 -41 22 6 22
9 22 153 0 170 16 365 33 401 7 14 50 56 97 94 131 106 962 727 967 723 6 -6
-101 -255 -182 -425 -141 -293 -240 -449 -494 -781 -195 -254 -186 -229 -126
-358 37 -80 107 -162 171 -199 57 -33 184 -64 266 -64 59 0 72 3 92 23 24 24
45 84 66 189 l11 58 47 -24 c79 -40 322 -142 404 -170 145 -49 246 -69 363
-70 166 -1 271 41 378 150 48 48 127 158 127 175 0 5 -296 9 -690 9 l-690 0 0
23 c0 35 30 247 41 290 5 21 68 162 138 315 175 376 182 391 401 852 211 443
420 889 420 894 0 2 -11 11 -25 20 -25 16 -27 16 -69 -14 -23 -17 -102 -94
-175 -170 -148 -157 -298 -290 -476 -423 -279 -209 -506 -345 -1000 -597 -132
-67 -244 -126 -250 -130 -5 -4 -53 -30 -105 -57 -52 -28 -177 -96 -277 -151
-101 -55 -183 -95 -183 -88 0 6 20 72 45 146 61 181 191 612 254 840 196 717
313 1372 361 2020 16 213 24 609 15 793 -7 162 -8 167 -29 167 -51 0 -81 -35
-171 -196 -285 -510 -506 -903 -586 -1041 -254 -438 -517 -844 -733 -1131
-226 -300 -287 -362 -654 -670 l-192 -162 -79 39 c-261 132 -329 401 -181 718
21 45 80 155 131 245 103 182 137 253 174 362 37 110 169 914 199 1211 4 33 8
71 11 85 2 14 7 57 10 95 3 39 8 88 11 110 37 309 41 922 9 1380 -12 164 -46
604 -50 645 -2 25 -7 92 -10 150 -16 247 -21 283 -55 368 -18 45 -36 82 -40
82 -4 0 -17 -8 -29 -17 -25 -21 -16 16 -226 -858 -202 -841 -508 -2070 -543
-2185 -180 -584 -526 -1061 -907 -1253 -134 -67 -329 -102 -490 -89 l-80 7 3
30 c2 17 47 95 107 185 262 393 416 790 600 1542 29 123 83 341 119 484 88
354 104 480 121 919 7 194 11 238 46 555 50 458 56 687 23 929 -26 194 -46
252 -120 363 -36 54 -67 98 -69 98 -1 0 -5 -33 -9 -72z"/>
<path d="M2913 28335 c-37 -16 -73 -68 -73 -106 0 -14 9 -59 19 -100 11 -41
24 -117 31 -169 6 -52 15 -112 21 -133 13 -48 48 -107 63 -107 7 0 31 13 53
29 34 24 45 41 63 97 71 220 190 317 415 336 21 2 38 15 63 47 l33 44 -27 28
c-16 16 -44 34 -63 39 -59 16 -559 12 -598 -5z"/>
<path d="M2514 27864 c-190 -266 -249 -364 -404 -679 -509 -1035 -883 -2137
-1246 -3675 -97 -412 -121 -514 -210 -900 -230 -1000 -251 -1089 -373 -1595
-102 -425 -167 -776 -210 -1140 -48 -409 -58 -587 -58 -1085 -1 -369 3 -499
21 -728 4 -42 20 -266 36 -497 17 -231 32 -447 35 -480 3 -33 19 -244 35 -470
38 -526 49 -666 55 -740 12 -155 28 -383 50 -750 9 -137 22 -311 31 -385 12
-114 99 -640 149 -915 9 -44 40 -219 71 -390 154 -867 378 -1961 714 -3500 22
-99 99 -450 170 -780 202 -926 602 -2723 714 -3200 292 -1255 702 -2451 1272
-3713 446 -987 760 -1498 1173 -1913 102 -102 155 -145 277 -227 144 -95 153
-100 168 -83 9 10 16 20 16 24 0 3 -35 50 -78 104 -443 553 -859 1294 -1312
2334 -530 1217 -947 2526 -1294 4064 -58 257 -119 549 -211 1005 -126 621
-372 1815 -580 2805 -47 226 -106 505 -130 620 -122 585 -189 898 -325 1526
-140 642 -239 1105 -260 1209 -5 25 -39 191 -75 370 -172 849 -246 1363 -284
1985 -10 164 -10 1017 0 1285 4 102 10 307 13 455 3 149 8 315 11 370 3 55 7
206 10 335 3 129 8 276 10 325 2 50 7 160 10 245 3 85 8 193 10 240 3 47 10
168 15 270 6 102 12 214 15 250 3 36 12 153 20 260 56 715 171 1591 340 2600
88 523 122 664 315 1315 56 187 141 491 191 675 168 624 220 804 343 1175 297
893 556 1493 872 2019 46 77 84 143 84 147 0 4 -11 14 -24 23 l-24 15 -148
-205z"/>
<path d="M3343 28059 c-47 -14 -86 -58 -142 -162 -27 -50 -61 -107 -75 -126
l-25 -34 117 -56 c64 -32 132 -63 150 -70 17 -7 32 -16 32 -20 0 -14 -63 -43
-137 -61 -190 -49 -226 -139 -162 -400 48 -199 94 -398 185 -805 161 -725 219
-928 483 -1715 250 -746 468 -1357 823 -2310 187 -503 250 -654 375 -904 197
-394 361 -672 693 -1176 290 -439 359 -552 488 -795 175 -332 292 -529 467
-791 562 -839 1254 -1526 2135 -2121 387 -261 654 -503 914 -828 279 -349 442
-727 517 -1195 17 -105 23 -199 28 -425 l6 -290 32 95 c81 245 98 519 54 861
-58 442 -247 835 -617 1279 -125 150 -162 203 -215 305 -101 193 -125 350 -95
608 41 350 130 666 269 957 20 41 92 174 161 294 69 120 129 234 132 253 29
155 -136 393 -276 397 -30 0 -46 -6 -70 -29 -39 -37 -50 -77 -95 -331 -48
-275 -156 -871 -249 -1369 -40 -220 -80 -433 -87 -472 -7 -40 -18 -73 -24 -73
-38 0 -193 52 -239 81 -78 47 -665 467 -861 616 -258 196 -415 348 -616 601
-167 208 -418 576 -911 1332 -365 562 -412 638 -650 1065 -80 143 -251 447
-380 675 -129 228 -280 498 -335 600 -578 1066 -979 2130 -1413 3755 -120 450
-347 1358 -365 1464 -29 162 -13 311 42 413 35 64 132 154 210 195 66 36 85
64 87 133 2 73 -72 140 -155 140 l-49 0 0 48 c0 26 9 84 20 130 40 165 20 226
-83 257 -28 8 -53 15 -56 14 -3 0 -20 -5 -38 -10z"/>
<path d="M4582 27949 c-60 -11 -138 -56 -178 -103 -79 -92 -107 -275 -65 -418
40 -131 77 -173 246 -274 290 -173 560 -380 775 -594 186 -186 310 -351 539
-717 80 -129 84 -133 117 -133 l35 0 -6 68 c-8 83 -40 166 -205 522 -243 525
-369 763 -536 1015 -123 185 -202 283 -358 443 -168 172 -246 213 -364 191z"/>
<path d="M14761 27612 c-144 -286 -389 -890 -437 -1077 -10 -42 -18 -108 -18
-165 -1 -104 15 -167 64 -255 l28 -50 -22 -28 -22 -28 -289 431 c-159 236
-294 430 -300 430 -5 0 -24 -13 -42 -28 l-32 -27 38 -65 c21 -36 95 -164 165
-285 177 -305 250 -412 428 -625 85 -102 292 -351 460 -555 320 -388 342 -412
396 -440 31 -15 35 -15 52 0 17 16 14 23 -78 173 -52 86 -180 296 -283 466
l-188 308 37 25 c120 80 192 209 207 368 5 55 -1 116 -29 290 -49 302 -64 427
-72 585 -7 142 6 330 31 435 13 57 12 62 -12 120 -14 33 -29 64 -33 69 -5 5
-27 -28 -49 -72z"/>
<path d="M16182 27633 c-33 -65 -181 -528 -201 -631 -21 -105 -23 -124 -46
-372 -25 -286 -64 -419 -163 -563 -119 -175 -133 -246 -129 -660 l4 -309 63
-125 64 -124 35 3 34 3 -4 90 c-32 716 126 1367 567 2330 127 279 126 276 122
280 -8 8 -208 84 -248 95 -25 6 -53 13 -62 16 -12 4 -23 -6 -36 -33z"/>
<path d="M15432 27430 c-53 -85 -63 -120 -101 -335 -17 -93 -50 -249 -75 -345
-70 -276 -81 -364 -81 -660 1 -272 10 -359 61 -589 32 -144 106 -374 149 -466
29 -62 136 -205 153 -205 4 0 19 10 34 23 l28 22 -41 109 c-121 328 -175 727
-150 1119 21 326 87 714 152 887 61 164 71 230 45 301 -13 36 -117 209 -126
209 -3 0 -24 -32 -48 -70z"/>
<path d="M22596 27099 c-17 -26 -28 -3 133 -294 218 -392 284 -576 295 -815
14 -303 -134 -572 -426 -775 -126 -87 -116 -112 40 -103 192 12 425 150 559
331 79 108 125 306 117 503 -14 351 -201 779 -449 1030 -73 75 -100 96 -147
113 -96 34 -104 35 -122 10z"/>
<path d="M22040 27009 c-182 -146 -245 -178 -344 -179 -81 0 -140 14 -304 75
-68 25 -130 45 -138 45 -12 0 -14 -45 -14 -290 0 -159 3 -290 6 -290 3 0 31
23 62 51 32 28 91 71 132 97 l75 47 140 6 c77 4 154 11 170 16 156 51 245 170
290 385 17 78 18 98 8 98 -5 -1 -42 -28 -83 -61z"/>
<path d="M22214 26692 c-48 -53 -114 -140 -149 -192 -138 -213 -249 -278 -489
-286 -148 -5 -207 -17 -403 -81 l-142 -47 6 -31 c3 -16 9 -33 12 -38 4 -4 106
0 227 9 229 16 268 15 452 -17 234 -39 334 -21 421 77 49 55 138 234 170 339
21 69 61 271 61 307 0 10 -16 26 -39 38 l-40 20 -87 -98z"/>
<path d="M17520 25510 c0 -239 72 -508 215 -808 l64 -132 -42 24 c-88 52 -146
116 -251 274 -57 86 -115 167 -128 179 -23 22 -90 42 -140 43 -24 0 -27 -4
-34 -52 -4 -29 -7 -59 -5 -67 4 -20 392 -599 490 -731 295 -395 707 -700 1536
-1135 373 -196 709 -416 980 -643 135 -113 368 -351 477 -487 150 -188 282
-392 372 -580 40 -82 111 -190 142 -216 16 -13 17 -6 11 141 -31 756 -389
1471 -967 1931 -195 156 -379 273 -819 526 -167 96 -339 197 -383 224 -66 42
-82 48 -95 38 -29 -25 -151 -289 -189 -411 -15 -48 -21 -58 -40 -58 -54 0
-130 119 -173 270 -31 111 -59 289 -67 425 l-7 120 -195 205 c-286 301 -312
335 -666 875 l-86 130 0 -85z"/>
<path d="M35283 25259 c-142 -24 -249 -91 -376 -236 -156 -178 -271 -350 -392
-588 -70 -138 -199 -433 -212 -482 -7 -29 -18 -28 112 -6 l39 6 -33 -41 c-32
-42 -56 -63 -177 -161 -142 -115 -253 -322 -295 -553 -19 -106 15 -157 121
-182 l51 -11 -27 -35 c-44 -59 -102 -188 -120 -267 -23 -103 -15 -230 21 -343
91 -285 418 -736 617 -849 52 -30 98 -40 98 -22 0 21 -64 190 -95 251 -18 36
-90 153 -159 260 -210 325 -258 440 -251 601 5 89 33 174 96 286 61 109 233
280 348 347 255 149 483 188 795 136 243 -40 266 -15 232 259 -22 179 -56 237
-145 248 -44 5 -396 -66 -500 -101 -127 -44 -308 -158 -665 -419 -110 -81
-201 -145 -203 -143 -7 6 50 163 74 206 42 73 265 288 373 359 225 150 483
248 775 295 55 9 114 19 131 21 l32 5 -39 132 c-22 72 -42 134 -45 137 -13 14
-289 -94 -624 -243 -201 -90 -367 -162 -369 -160 -5 5 236 410 337 564 185
283 341 459 459 516 47 24 62 26 129 22 70 -5 86 -11 267 -100 113 -56 225
-120 272 -155 207 -154 353 -374 444 -669 35 -113 109 -424 141 -594 49 -261
158 -433 362 -571 94 -64 245 -131 443 -197 99 -33 207 -72 240 -87 70 -32
165 -43 219 -25 20 6 59 30 88 52 l51 41 -7 -34 c-95 -454 -21 -832 241 -1229
96 -145 123 -174 236 -247 l97 -63 0 -474 0 -475 -37 -6 c-122 -20 -193 -38
-268 -70 -47 -19 -98 -35 -113 -35 -15 0 -87 20 -160 45 -403 135 -573 288
-653 583 -44 164 -131 293 -259 387 -59 43 -192 109 -320 160 -52 20 -116 45
-141 55 l-46 18 -53 -30 -52 -30 168 -111 c128 -84 191 -133 257 -201 155
-157 227 -268 227 -352 0 -57 -42 -116 -136 -189 -43 -33 -101 -79 -130 -102
-29 -23 -66 -45 -81 -49 -15 -4 -205 -56 -421 -116 -217 -60 -397 -107 -400
-103 -3 3 4 166 17 363 12 196 24 393 27 437 3 44 7 105 9 135 3 30 9 186 16
345 18 460 -3 848 -66 1231 -50 300 -102 419 -219 498 -173 117 -363 76 -823
-179 -326 -181 -397 -258 -396 -430 1 -88 17 -143 128 -425 31 -80 100 -282
152 -450 53 -168 98 -312 101 -320 3 -10 -3 -7 -19 7 -34 31 -78 45 -117 38
-39 -7 -106 -65 -158 -136 -42 -57 -90 -89 -133 -89 -17 0 -66 13 -109 30
-280 107 -545 78 -872 -98 -199 -106 -350 -224 -535 -413 -177 -183 -282 -316
-576 -734 -46 -65 -119 -154 -162 -197 -74 -74 -88 -84 -260 -168 -183 -89
-458 -202 -682 -280 -379 -132 -623 -314 -783 -585 -92 -155 -167 -420 -160
-562 3 -60 7 -76 28 -99 32 -34 71 -51 155 -64 37 -6 105 -26 151 -44 93 -38
192 -65 250 -69 l38 -2 18 75 c14 55 18 97 14 159 -3 46 -7 85 -9 88 -3 2 -27
6 -53 9 -131 11 -158 15 -192 30 -88 36 -123 95 -110 187 16 122 110 280 240
403 115 109 165 134 475 238 472 159 835 299 983 378 245 131 393 312 439 538
27 132 55 201 110 273 54 70 333 312 488 422 331 235 629 296 953 193 66 -21
219 -92 320 -147 63 -36 113 -39 205 -16 120 31 139 94 105 350 -12 93 -24
186 -27 205 -11 92 69 -140 198 -580 250 -849 402 -1319 462 -1433 41 -78 129
-178 286 -326 l132 -124 55 12 c30 7 54 15 54 17 0 16 -46 71 -126 149 -104
103 -145 175 -165 289 -30 177 39 462 125 515 44 28 100 27 211 -4 138 -38
174 -35 381 36 304 104 500 210 649 350 86 81 100 89 168 90 51 1 61 -3 139
-54 104 -68 179 -106 288 -145 163 -57 371 -94 600 -107 58 -3 119 -8 135 -11
l31 -4 -23 -241 c-38 -421 -60 -526 -122 -582 -76 -69 -246 -158 -344 -180
-38 -8 -71 -17 -73 -20 -3 -2 0 -15 5 -29 l9 -24 259 1 259 1 70 34 c83 41
173 128 319 310 312 388 557 847 850 1585 151 380 259 698 450 1325 127 418
154 498 169 507 38 22 362 324 397 369 23 30 45 52 49 49 5 -3 11 -29 15 -58
5 -44 1 -69 -29 -159 -85 -251 -76 -443 45 -912 66 -261 116 -401 204 -581
139 -283 348 -567 679 -924 54 -57 109 -127 124 -155 24 -46 26 -61 24 -141
-2 -120 -18 -255 -44 -394 -26 -136 -47 -168 -136 -201 -49 -19 -77 -22 -199
-21 -79 0 -143 -3 -143 -7 0 -20 101 -104 153 -127 73 -34 158 -40 342 -27
202 14 286 49 355 144 125 172 100 512 -59 815 -78 148 -151 241 -344 440
-284 294 -404 457 -537 728 -159 323 -232 606 -265 1030 -21 269 -55 638 -60
643 -1 2 -28 -13 -59 -34 -31 -20 -58 -35 -60 -33 -3 2 6 67 19 144 13 77 29
173 35 213 7 41 17 72 23 72 24 0 122 52 163 86 25 19 54 58 70 89 67 138 -3
298 -240 543 -50 52 -119 114 -153 139 -121 86 -452 227 -806 342 -290 94
-335 104 -447 99 -178 -9 -270 -75 -379 -273 -52 -94 -331 -695 -326 -702 1
-2 21 7 46 19 24 11 102 43 174 70 280 106 359 186 391 399 30 203 118 288
290 277 58 -4 89 -13 156 -45 110 -53 505 -273 676 -377 124 -75 145 -92 216
-176 l79 -92 -18 -34 c-10 -19 -24 -34 -31 -34 -7 0 -52 9 -99 20 -128 30
-157 47 -335 195 -239 200 -319 247 -427 253 -39 2 -78 0 -85 -4 -11 -7 97
-103 421 -374 l435 -365 -69 -3 c-157 -7 -313 51 -532 196 -152 101 -186 119
-278 142 -80 20 -140 19 -219 -6 -50 -16 -126 -59 -126 -72 0 -4 29 -22 64
-40 152 -79 807 -506 884 -576 72 -66 89 -123 56 -189 -18 -36 -113 -137 -129
-137 -5 0 -28 35 -50 78 -62 121 -130 215 -204 284 -132 122 -268 169 -496
169 -214 0 -396 -41 -598 -135 -180 -85 -464 -281 -488 -338 -20 -47 -15 -145
20 -438 55 -452 61 -532 61 -784 l-1 -241 -77 80 c-106 111 -255 313 -308 417
-68 135 -96 257 -96 413 0 301 101 554 310 776 116 124 254 230 517 396 60 38
269 201 273 213 2 5 -8 27 -23 49 l-25 41 -253 -126 c-278 -140 -349 -182
-453 -272 -123 -105 -264 -291 -359 -475 -27 -52 -46 -77 -58 -77 -10 0 -79
11 -155 25 -75 14 -199 33 -275 41 -241 27 -369 73 -447 161 -21 24 -80 114
-132 201 -205 340 -278 510 -319 742 -64 365 -169 610 -353 821 -252 289 -665
468 -963 418z"/>
<path d="M16563 25161 c-92 -28 -138 -53 -438 -239 -173 -107 -285 -168 -391
-212 -161 -67 -276 -126 -321 -165 -65 -55 -106 -147 -111 -249 -7 -134 11
-178 108 -269 175 -165 327 -236 510 -240 43 -1 76 -5 74 -8 -2 -3 -46 -41
-99 -85 -64 -52 -91 -80 -82 -85 7 -4 71 -24 142 -44 72 -21 134 -40 139 -43
5 -3 -41 -30 -102 -61 l-110 -56 214 -329 c119 -180 213 -330 211 -333 -3 -2
-54 -15 -114 -29 -59 -13 -118 -26 -131 -29 -21 -5 -19 -9 32 -69 213 -251
341 -553 432 -1016 21 -107 39 -197 41 -199 1 -2 23 2 49 9 l46 13 -6 146 c-4
80 -9 205 -11 276 -15 370 -67 568 -201 757 -36 52 -36 52 33 87 l41 20 157
-304 c165 -323 160 -315 220 -299 26 7 70 112 62 146 -4 13 -63 118 -133 233
-69 116 -133 221 -141 235 -14 24 -2 66 216 740 127 393 233 722 236 730 7 23
-53 44 -74 26 -9 -7 -177 -156 -375 -330 l-358 -317 -35 83 c-65 154 -74 182
-74 217 0 50 152 496 437 1284 7 20 10 37 6 36 -4 0 -48 -13 -99 -28z"/>
<path d="M11872 24801 c-40 -10 -124 -44 -187 -75 -205 -101 -382 -159 -681
-221 -343 -71 -622 -26 -898 144 -65 40 -71 42 -83 25 -7 -10 -13 -21 -13 -25
0 -3 31 -35 68 -70 119 -112 352 -220 546 -253 233 -40 382 -27 753 63 352 86
456 102 642 102 164 -1 216 -7 376 -48 88 -23 124 -26 305 -28 450 -6 825 44
1168 157 l154 50 -22 23 c-12 13 -49 35 -82 50 -70 32 -155 35 -259 11 -75
-17 -290 -41 -524 -57 -285 -19 -535 8 -745 82 -198 70 -240 80 -345 85 -76 3
-118 -1 -173 -15z"/>
<path d="M2195 24493 c-251 -1281 -399 -2222 -440 -2798 -3 -44 -7 -107 -10
-140 -2 -33 -7 -96 -10 -140 -21 -305 -44 -537 -80 -815 -52 -401 -69 -567
-99 -965 -10 -128 -27 -708 -22 -729 3 -12 6 -86 7 -166 7 -570 112 -1243 330
-2114 224 -893 593 -1944 896 -2551 59 -118 350 -672 390 -743 l24 -42 30 15
c16 9 28 19 26 23 -3 4 -28 64 -56 134 -28 70 -94 226 -147 345 -384 868 -658
1707 -838 2564 -63 298 -132 722 -161 984 -2 22 -9 81 -14 130 -6 50 -13 124
-16 165 -3 41 -8 91 -10 110 -2 19 -6 69 -10 110 -70 957 -90 1568 -82 2535 3
380 7 701 10 715 3 14 8 86 11 160 4 74 9 164 12 200 2 36 13 184 24 330 18
235 41 508 55 655 3 28 10 104 15 170 6 66 17 197 25 290 8 94 17 197 20 230
12 148 48 509 70 710 14 121 27 240 29 265 3 25 17 146 31 269 14 123 24 226
22 228 -3 2 -17 -58 -32 -134z"/>
<path d="M7250 24405 c-17 -60 -9 -130 35 -313 173 -721 519 -1245 1070 -1621
166 -114 622 -367 1503 -835 444 -236 513 -267 612 -281 l45 -7 23 48 c19 38
21 49 10 59 -21 19 -367 239 -469 297 -52 30 -332 175 -624 321 -596 300 -892
456 -1010 532 -345 223 -544 509 -600 862 -13 87 -13 270 1 419 4 43 1 93 -6
130 -10 49 -20 67 -59 105 -38 39 -61 51 -131 73 -90 29 -122 49 -210 132 -50
48 -156 124 -171 124 -4 0 -12 -20 -19 -45z"/>
<path d="M2861 23685 c-2 -11 -4 -29 -6 -40 -22 -127 -32 -1081 -14 -1465 39
-851 157 -1676 374 -2617 328 -1421 802 -2474 1481 -3288 195 -234 397 -438
683 -691 l44 -39 -7 30 c-9 40 -57 105 -200 271 -930 1087 -1587 2615 -1960
4564 -79 414 -159 924 -211 1352 -65 536 -101 892 -130 1273 -3 33 -9 119 -15
190 -5 72 -12 168 -16 215 -11 156 -21 265 -23 245z"/>
<path d="M21585 23450 c33 -59 284 -398 426 -576 358 -450 686 -810 1195
-1315 422 -417 636 -613 1174 -1074 382 -328 541 -470 740 -659 199 -191 376
-330 655 -516 305 -203 709 -496 1144 -829 323 -248 472 -352 801 -561 606
-385 735 -483 1300 -979 220 -194 245 -213 248 -191 1 14 11 109 20 213 16
169 17 189 3 201 -9 7 -108 73 -221 146 -113 73 -256 169 -318 213 -205 146
-714 578 -1152 977 -378 345 -509 446 -1074 838 -591 409 -784 559 -1066 828
-52 50 -115 104 -140 121 -74 49 -295 175 -514 293 -221 118 -347 193 -442
263 -73 54 -651 551 -993 855 -397 352 -633 573 -946 887 -257 257 -367 374
-667 707 -74 82 -191 189 -173 158z"/>
<path d="M23560 23440 c0 -6 19 -101 41 -213 39 -187 42 -215 43 -372 1 -151
4 -175 23 -216 28 -62 99 -117 204 -159 99 -40 475 -200 854 -365 305 -132
351 -150 438 -165 34 -6 72 -14 84 -17 17 -4 25 2 37 26 9 16 16 32 16 34 0 3
-46 30 -102 62 -183 102 -387 248 -587 419 -132 112 -466 442 -756 745 -210
220 -222 231 -257 231 -21 0 -38 -5 -38 -10z"/>
<path d="M14504 23289 c-668 -412 -831 -507 -1102 -644 -201 -100 -269 -127
-402 -160 -156 -37 -297 -49 -534 -42 -116 3 -224 9 -241 11 -16 3 -88 12
-160 20 -71 9 -209 25 -305 36 -233 28 -243 26 -147 -29 348 -198 708 -241
1347 -160 566 71 945 223 1330 532 109 88 312 295 412 421 85 105 86 109 71
132 -8 13 -21 24 -27 24 -7 0 -116 -64 -242 -141z"/>
<path d="M3606 22928 c4 -24 76 -266 161 -538 303 -972 483 -1560 583 -1900
174 -595 240 -791 359 -1068 227 -530 502 -936 887 -1312 467 -455 1054 -935
1804 -1475 452 -325 645 -487 918 -770 l154 -159 -27 59 c-106 241 -308 527
-530 750 -228 229 -439 387 -875 655 -618 379 -820 543 -1145 925 -438 516
-798 1123 -1092 1844 -143 351 -239 627 -379 1089 -186 615 -359 1062 -591
1527 -101 202 -210 402 -224 410 -6 4 -7 -10 -3 -37z"/>
<path d="M17133 22237 c-205 -183 -379 -339 -388 -348 -14 -14 -15 -22 -1 -75
8 -32 20 -90 26 -127 30 -186 103 -273 274 -326 98 -30 137 -28 181 10 27 24
40 48 60 113 45 148 215 779 239 891 39 176 40 185 23 185 -8 0 -21 2 -29 4
-7 2 -180 -145 -385 -327z"/>
<path d="M18353 22477 c-43 -16 -56 -37 -82 -131 -72 -262 -248 -479 -601
-743 -188 -140 -230 -175 -443 -376 -123 -116 -138 -134 -135 -160 3 -27 11
-32 117 -75 l115 -46 -91 -30 c-51 -17 -94 -34 -97 -37 -7 -7 170 -228 248
-307 138 -142 198 -162 516 -171 263 -7 282 -12 351 -86 65 -70 120 -89 184
-65 14 5 57 39 95 75 103 97 148 111 229 75 43 -20 43 -20 76 0 74 46 115 107
160 237 4 12 42 7 50 -8 3 -4 -44 -106 -104 -226 -112 -224 -149 -321 -137
-367 10 -40 81 -103 141 -125 111 -42 232 -37 344 14 67 31 93 55 177 163 36
45 68 82 73 82 4 0 16 -6 26 -14 19 -13 18 -17 -19 -111 -32 -79 -36 -99 -25
-106 8 -5 129 -70 269 -146 140 -75 277 -149 303 -163 l49 -28 -84 -85 c-217
-221 -453 -293 -696 -211 -92 31 -162 72 -278 164 -202 160 -342 195 -814 205
-315 6 -422 16 -522 50 -166 56 -263 149 -324 311 -34 90 -49 110 -154 199
-168 142 -311 336 -455 617 -76 148 -86 162 -134 194 l-51 35 -35 -27 c-19
-14 -35 -30 -35 -35 0 -9 215 -448 421 -860 l140 -280 -38 6 c-21 4 -70 22
-110 41 -105 50 -157 113 -248 299 -40 83 -109 206 -152 276 -43 69 -137 239
-207 378 l-128 253 -31 -31 -31 -31 18 -72 c32 -129 123 -390 178 -513 171
-383 389 -602 807 -814 383 -194 752 -298 1295 -366 371 -46 541 -78 780 -146
187 -52 292 -65 404 -50 172 24 310 100 466 255 335 333 475 743 411 1202 -37
260 -154 600 -397 1144 -60 135 -139 313 -175 395 -37 83 -73 158 -81 167 -8
10 -50 40 -92 67 l-78 49 -5 -46 c-4 -35 4 -84 33 -197 86 -329 110 -533 105
-900 -3 -275 -15 -417 -55 -644 -31 -169 -40 -180 -147 -181 -80 0 -79 -2 -63
68 41 177 53 599 25 847 -34 296 -94 542 -156 640 -35 56 -43 63 -59 55 -11
-6 -21 -13 -23 -18 -3 -4 -55 -279 -117 -612 -61 -333 -113 -606 -115 -608 -5
-6 -105 11 -101 17 2 3 7 101 11 216 3 116 8 217 10 225 6 23 20 401 20 534
l0 120 -35 9 c-33 8 -36 6 -73 -35 -21 -23 -115 -158 -208 -298 -206 -308
-261 -382 -291 -398 -38 -21 -152 -52 -159 -44 -4 4 -19 36 -34 72 -27 63 -27
67 -15 145 6 44 36 206 66 360 105 534 106 543 100 630 -7 102 -16 145 -30
144 -6 0 -26 -6 -43 -12z m-18 -1498 c4 -12 3 -25 -2 -29 -54 -51 -282 -240
-368 -305 -112 -85 -140 -97 -245 -110 -30 -4 -62 -8 -71 -11 -17 -5 -16 -10
-35 194 l-7 72 -119 38 -120 37 5 38 c3 21 7 41 10 43 7 7 397 -33 499 -51 48
-9 106 -22 129 -30 49 -18 102 -19 131 -4 11 6 30 35 43 64 22 50 26 53 72 63
70 14 71 14 78 -9z"/>
<path d="M23695 22400 c-4 -23 -3 -46 1 -50 5 -5 65 -32 134 -60 488 -203 834
-364 1010 -470 313 -188 532 -409 680 -685 107 -198 232 -320 423 -410 72 -35
1022 -351 1342 -447 259 -78 334 -72 413 31 18 24 32 51 30 59 -2 9 -30 22
-73 34 -196 54 -938 293 -1065 343 -61 25 -112 61 -195 138 -78 71 -627 508
-842 669 -295 220 -414 290 -688 403 -77 32 -270 113 -430 180 -238 101 -675
284 -722 302 -6 3 -14 -12 -18 -37z"/>
<path d="M8279 21968 c-6 -93 -5 -345 2 -418 36 -363 169 -765 364 -1095 173
-293 384 -556 1015 -1265 372 -417 477 -550 632 -791 116 -183 323 -527 470
-784 231 -404 1010 -1819 1301 -2365 25 -47 110 -206 189 -355 418 -781 451
-851 483 -1016 30 -157 15 -289 -52 -454 -33 -81 -36 -99 -36 -180 1 -89 35
-307 122 -770 21 -115 38 -211 37 -212 0 0 -71 -8 -156 -17 -85 -9 -202 -22
-260 -28 -160 -16 -454 -14 -605 6 -646 83 -1006 233 -1377 574 -60 55 -88 74
-131 86 -30 9 -57 16 -59 16 -2 0 -14 -20 -28 -45 -15 -28 -21 -48 -15 -53 65
-59 765 -574 835 -614 54 -32 165 -65 240 -72 73 -8 598 -43 830 -56 102 -5
217 -12 255 -15 39 -2 115 -7 170 -10 312 -19 338 -22 349 -37 7 -10 19 -128
30 -291 9 -152 19 -288 21 -304 2 -15 6 -75 10 -133 18 -294 36 -400 72 -432
10 -9 45 -21 78 -28 148 -30 310 -96 435 -179 30 -20 94 -73 141 -119 48 -45
101 -87 117 -92 33 -9 273 -180 269 -192 -1 -3 -92 -86 -202 -183 -211 -187
-325 -270 -465 -340 -276 -138 -455 -358 -555 -680 -20 -66 -111 -295 -202
-509 -90 -213 -163 -389 -161 -390 2 -2 17 -12 35 -24 l31 -22 19 33 c486 818
575 958 758 1202 180 240 364 433 560 590 86 68 210 155 222 155 5 0 41 -25
79 -56 85 -68 242 -147 349 -176 107 -28 298 -30 400 -4 150 39 295 125 396
233 61 67 115 141 107 149 -3 2 -50 -12 -104 -32 -186 -69 -202 -73 -275 -85
-104 -16 -299 -5 -430 25 -213 49 -359 124 -484 250 -44 45 -135 127 -202 184
-137 115 -200 186 -248 281 -18 37 -41 74 -52 83 -30 27 -147 77 -221 94 -37
8 -79 20 -95 26 -41 16 -75 62 -81 111 -43 325 -43 371 -6 518 19 77 100 350
105 357 1 1 42 5 91 8 49 4 139 19 200 34 321 83 609 64 1149 -76 143 -36 325
-82 405 -101 204 -48 260 -80 306 -178 45 -96 29 -214 -48 -340 -23 -39 -56
-110 -74 -158 l-32 -88 34 -17 c30 -14 36 -14 48 -1 7 7 113 134 235 282 121
147 222 267 223 267 2 0 38 -7 81 -15 111 -21 105 -24 95 41 -38 244 -272 487
-551 573 -66 20 -245 47 -462 70 -511 55 -986 49 -1340 -15 -133 -24 -215 -22
-272 7 -80 42 -111 101 -184 349 -86 294 -150 617 -189 955 -25 218 -41 299
-85 430 -67 204 -144 353 -385 744 -89 145 -224 383 -300 529 -162 315 -244
458 -584 1030 -416 700 -482 827 -817 1575 -137 305 -186 400 -280 537 -150
220 -349 438 -968 1059 -386 388 -442 451 -526 606 -163 298 -270 663 -306
1045 -10 110 -9 526 2 569 3 9 -12 23 -36 36 -70 37 -435 205 -445 205 -6 0
-10 -6 -11 -12z"/>
<path d="M14444 21206 c-325 -158 -619 -361 -975 -674 -172 -151 -850 -812
-844 -822 3 -5 38 -16 77 -25 87 -19 150 -13 225 22 59 27 55 24 443 378 753
687 1124 1031 1152 1069 37 51 71 116 61 116 -5 0 -67 -29 -139 -64z"/>
<path d="M9006 20831 c-3 -4 -10 -20 -15 -34 -10 -25 -3 -31 207 -191 261
-198 361 -284 467 -406 172 -198 422 -400 805 -651 513 -336 582 -383 696
-468 65 -49 154 -120 197 -157 144 -127 156 -135 196 -132 32 3 37 7 50 43 13
37 12 45 -4 79 -23 49 -383 417 -575 589 -409 365 -973 772 -1605 1159 -233
142 -249 151 -333 167 -64 13 -79 14 -86 2z"/>
<path d="M27965 20819 c-76 -18 -245 -72 -245 -79 0 -11 161 -234 223 -308
101 -122 111 -126 455 -197 270 -55 267 -54 1177 -354 402 -132 816 -268 920
-302 174 -57 198 -62 280 -63 137 -1 165 21 259 209 38 75 156 334 156 341 0
1 -15 13 -34 27 l-34 26 -68 -19 c-60 -18 -231 -42 -639 -91 -55 -7 -190 -13
-300 -13 -186 -1 -207 1 -307 26 -144 37 -260 81 -528 203 -124 56 -252 112
-285 125 -33 13 -67 30 -77 37 -9 8 -38 75 -64 150 -35 101 -53 137 -68 143
-50 20 -385 113 -469 131 -99 20 -280 24 -352 8z"/>
<path d="M17495 20254 c155 -266 367 -386 735 -414 206 -15 195 -17 214 31 9
23 16 43 14 44 -2 2 -219 87 -483 190 -264 103 -487 190 -495 193 -9 4 -4 -12
15 -44z"/>
<path d="M39483 20008 c-86 -117 -137 -212 -129 -244 9 -34 85 -109 120 -118
52 -13 157 -70 201 -108 24 -21 56 -64 72 -96 26 -52 27 -64 25 -157 -7 -215
-8 -209 20 -256 34 -57 61 -81 128 -115 46 -23 71 -29 150 -32 l95 -4 -42 43
c-126 131 -160 282 -102 449 33 95 24 146 -49 266 -55 90 -128 193 -219 309
-64 81 -126 131 -179 140 -27 5 -34 -1 -91 -77z"/>
<path d="M36535 19640 c-18 -20 -15 -24 205 -238 340 -331 504 -516 654 -740
164 -245 264 -506 296 -772 14 -121 13 -332 -2 -352 -7 -9 -74 -38 -148 -64
-130 -45 -189 -69 -406 -167 -204 -92 -408 -151 -644 -187 -157 -23 -518 -21
-674 4 -305 50 -559 130 -876 276 -221 101 -343 140 -445 140 -156 0 -363 102
-550 271 -39 35 -99 89 -135 119 l-63 55 7 -51 c17 -132 77 -242 169 -311 147
-111 1076 -636 1298 -733 438 -193 903 -250 1399 -170 390 63 720 201 1005
419 155 118 383 371 432 478 64 139 63 255 -3 421 -229 577 -613 1060 -1144
1439 -137 97 -246 162 -292 173 -59 13 -62 13 -83 -10z"/>
<path d="M15152 19435 c-379 -216 -1150 -1227 -1646 -2158 l-57 -107 31 -27
c18 -14 89 -75 158 -134 l127 -108 26 27 c17 18 46 85 84 192 309 880 706
1564 1230 2121 64 67 73 82 88 142 9 36 17 69 17 72 0 10 -15 5 -58 -20z"/>
<path d="M40890 19200 c-135 -9 -305 -34 -405 -60 -68 -18 -281 -103 -299
-120 -5 -6 16 -41 51 -87 75 -97 96 -139 116 -228 17 -76 58 -327 54 -332 -2
-1 -23 4 -47 11 -50 15 -83 8 -94 -21 -4 -10 -10 -61 -12 -113 -12 -277 -67
-490 -178 -689 -150 -270 -430 -471 -755 -541 -208 -46 -519 -54 -1365 -35
l-398 8 16 -30 c33 -66 74 -89 282 -158 383 -129 773 -145 1199 -50 258 57
705 227 867 328 275 172 421 410 468 762 6 44 14 176 17 293 l6 212 58 -55
c62 -60 101 -80 179 -95 58 -11 155 3 217 30 24 10 43 17 43 15 0 -3 -14 -27
-30 -54 -17 -27 -45 -87 -62 -133 -26 -71 -31 -101 -35 -203 -4 -106 -2 -133
22 -235 27 -110 28 -127 28 -375 1 -218 -2 -282 -20 -395 -42 -264 -100 -488
-244 -933 -62 -193 -87 -255 -110 -282 -40 -45 -86 -58 -164 -45 -33 5 -89 11
-124 14 l-65 4 25 -19 c95 -72 232 -119 369 -126 160 -8 183 3 378 186 502
472 704 764 831 1201 85 294 115 540 116 945 l0 310 -33 67 c-38 77 -82 118
-162 151 -49 19 -74 22 -235 23 -113 0 -191 5 -209 13 -39 16 -330 87 -391 96
-76 11 -104 29 -129 88 -32 74 -47 139 -47 214 -1 53 4 71 24 102 54 82 169
151 282 170 59 10 544 6 615 -5 98 -15 124 -50 123 -159 -1 -65 -4 -108 -22
-360 -4 -55 -4 -104 0 -109 14 -16 133 50 195 107 142 131 189 334 124 528
-48 142 -74 155 -335 163 -398 12 -624 14 -735 6z"/>
<path d="M10316 19069 c3 -30 15 -67 27 -84 11 -16 85 -93 165 -170 155 -149
232 -236 802 -910 494 -583 569 -670 775 -890 347 -371 414 -465 645 -910 91
-177 155 -283 232 -388 65 -87 286 -313 455 -465 l103 -92 62 0 c60 0 64 2 81
31 l17 31 -137 154 c-247 276 -333 377 -432 509 -189 251 -364 532 -532 853
-29 56 -81 139 -115 185 -79 104 -354 396 -415 439 -54 38 -49 33 -424 468
-560 649 -711 817 -919 1024 -116 115 -225 220 -243 233 -23 18 -50 26 -92 30
l-60 6 5 -54z"/>
<path d="M17797 18726 c-74 -52 -93 -71 -197 -211 -111 -148 -149 -186 -274
-275 -336 -239 -553 -584 -620 -988 -22 -133 -25 -161 -31 -392 -8 -275 -20
-404 -51 -560 -33 -163 -81 -306 -154 -458 -33 -68 -75 -177 -95 -243 -41
-139 -184 -543 -259 -733 -36 -90 -76 -168 -124 -243 -40 -60 -72 -115 -72
-122 0 -6 11 -16 24 -22 20 -10 30 -7 68 19 61 43 68 51 250 323 176 262 260
408 303 529 89 252 185 706 295 1410 87 552 128 720 230 936 92 197 185 319
391 513 72 69 199 203 281 298 l150 174 -26 40 c-15 21 -30 39 -34 38 -4 0
-29 -15 -55 -33z"/>
<path d="M33540 18254 c-230 -85 -292 -103 -565 -168 -252 -60 -446 -116 -507
-147 -90 -46 -152 -127 -177 -234 -7 -27 -24 -71 -39 -97 l-28 -47 -83 99
c-167 199 -318 339 -441 408 -122 68 -274 99 -407 82 -120 -16 -123 -18 -72
-49 60 -37 116 -58 217 -82 253 -59 453 -272 508 -539 55 -274 -96 -550 -311
-568 -109 -9 -208 52 -416 256 -115 112 -153 156 -178 205 -86 174 -257 337
-450 432 -196 96 -311 90 -389 -19 -76 -106 -165 -338 -203 -524 -56 -281 -27
-618 82 -940 54 -162 80 -211 147 -274 66 -63 126 -97 227 -126 74 -22 185
-42 185 -34 0 21 -73 111 -115 142 -73 54 -99 98 -93 160 7 68 39 107 219 267
85 75 227 204 316 285 90 81 166 148 169 148 4 0 35 -28 70 -63 34 -35 85 -75
113 -91 68 -36 179 -59 250 -50 84 10 209 55 297 107 236 138 346 329 348 602
l1 100 80 7 c207 19 525 110 790 227 124 55 365 176 682 343 l102 54 -70 89
c-39 50 -73 93 -77 97 -4 3 -86 -23 -182 -58z"/>
<path d="M18984 17692 c-131 -85 -318 -245 -495 -421 -275 -276 -434 -492
-634 -861 -53 -99 -500 -995 -598 -1200 l-45 -95 31 -27 c18 -15 37 -28 44
-28 7 0 43 35 80 79 47 54 107 146 193 297 137 240 209 354 348 546 123 170
162 233 274 433 212 380 297 496 548 745 187 185 275 294 305 379 16 46 48
201 43 207 -2 2 -44 -22 -94 -54z"/>
<path d="M39380 16687 c0 -2 13 -69 29 -148 127 -623 252 -932 516 -1274 135
-174 244 -361 291 -496 61 -176 131 -557 158 -854 17 -191 18 -607 0 -795 -43
-471 -142 -905 -311 -1359 -194 -523 -435 -914 -735 -1196 -628 -588 -1201
-764 -1815 -559 -96 32 -118 34 -169 19 -16 -5 1 -106 27 -165 24 -54 71 -105
119 -130 69 -35 149 -43 378 -37 436 12 786 94 1117 262 220 111 395 237 589
426 598 579 927 1343 997 2319 15 202 7 504 -20 805 -11 121 -27 317 -36 435
-26 364 -62 573 -132 773 -49 142 -99 236 -232 442 -305 469 -488 867 -600
1305 l-37 145 -59 42 c-55 38 -75 49 -75 40z"/>
<path d="M36272 16564 c-23 -9 -66 -38 -96 -65 -82 -75 -438 -579 -544 -772
-72 -128 -80 -282 -22 -398 40 -80 123 -208 203 -314 156 -206 805 -991 1037
-1255 317 -359 450 -474 609 -524 77 -24 211 -42 211 -27 0 4 -69 81 -152 172
-325 350 -474 526 -958 1134 -413 517 -454 571 -503 671 -52 102 -70 182 -70
299 0 236 83 385 462 828 89 103 161 192 161 196 0 5 -30 21 -67 36 -85 35
-205 43 -271 19z"/>
<path d="M30765 16265 c-16 -8 -2 -138 24 -225 54 -184 96 -299 124 -343 19
-31 294 -296 761 -735 2477 -2328 2565 -2412 4511 -4323 177 -173 206 -198
253 -214 55 -18 82 -11 82 22 0 8 -76 110 -168 226 -93 117 -231 293 -307 392
-531 688 -981 1200 -1557 1771 -161 159 -380 371 -487 469 -270 249 -310 304
-311 422 0 77 18 163 68 323 110 351 225 563 407 746 172 173 334 259 593 316
81 18 134 21 322 23 l225 1 73 34 c39 18 72 35 72 37 0 2 -10 20 -23 41 -12
20 -31 54 -42 75 -11 22 -33 54 -50 74 -26 30 -39 36 -100 45 -116 19 -484 16
-591 -4 -260 -49 -470 -158 -666 -346 -219 -211 -360 -425 -554 -845 -47 -100
-91 -188 -98 -195 -11 -12 -61 32 -302 264 -847 815 -1949 1848 -2030 1904
-63 43 -69 45 -142 47 -43 1 -82 0 -87 -2z"/>
<path d="M6925 15273 c-382 -56 -658 -230 -790 -498 -71 -144 -105 -318 -100
-515 4 -186 36 -335 168 -785 182 -622 357 -1466 357 -1715 -1 -218 -95 -414
-258 -534 -42 -30 -118 -71 -222 -120 -19 -9 -62 -40 -95 -69 l-59 -54 49 -12
c84 -21 110 -10 236 98 437 374 585 649 564 1051 -14 279 -44 503 -111 838
-24 123 -49 267 -55 320 -18 170 4 322 72 497 77 200 95 321 83 545 -14 274
-11 369 14 417 42 79 122 125 282 161 57 13 124 17 280 17 255 -1 299 -8 728
-131 67 -20 127 -34 133 -32 6 2 -36 49 -93 103 -359 342 -753 482 -1183 418z"/>
<path d="M8151 14540 c-255 -36 -561 -148 -766 -281 -162 -106 -343 -327 -417
-513 l-33 -81 2 -290 c5 -683 30 -980 109 -1304 133 -546 360 -860 771 -1065
182 -91 497 -206 549 -202 172 16 195 19 191 31 -8 20 -197 287 -252 355 -28
36 -117 134 -196 218 -424 451 -455 489 -499 604 -62 165 -74 191 -123 271
-206 339 -301 681 -283 1022 19 363 114 591 293 705 122 78 409 164 603 182
185 16 279 0 551 -97 357 -128 508 -199 666 -312 190 -136 330 -276 444 -445
141 -208 212 -407 226 -630 8 -141 -8 -256 -64 -442 -24 -82 -43 -150 -41
-151 30 -25 50 -25 82 0 19 15 41 37 50 49 8 13 31 106 52 207 60 301 59 479
-6 724 -77 293 -210 520 -450 768 -152 158 -328 301 -557 454 -290 192 -378
223 -658 228 -99 2 -209 0 -244 -5z"/>
<path d="M8160 13624 c-96 -20 -201 -76 -277 -147 -124 -116 -219 -289 -234
-429 -6 -46 -17 -132 -25 -193 -9 -60 -18 -178 -21 -261 -7 -189 5 -235 108
-414 307 -538 725 -1056 1809 -2245 506 -555 556 -611 617 -693 124 -166 175
-305 172 -470 -1 -80 2 -99 22 -137 13 -25 27 -45 30 -45 12 0 67 92 102 170
78 171 79 241 3 625 -345 1758 -460 2171 -801 2860 -129 261 -197 386 -368
670 -134 224 -175 281 -274 377 -275 268 -593 391 -863 332z"/>
<path d="M3429 11930 c-110 -10 -280 -52 -374 -91 -195 -81 -359 -237 -460
-439 -83 -166 -142 -363 -182 -605 -27 -168 -24 -475 6 -615 43 -202 102 -344
207 -503 63 -95 226 -275 286 -319 27 -19 31 -19 69 -4 56 23 110 20 150 -7
18 -12 63 -63 99 -114 150 -211 309 -413 381 -484 89 -89 219 -178 408 -280
153 -82 220 -99 240 -60 8 15 9 32 2 57 -12 44 -22 51 169 -121 228 -206 332
-290 484 -390 379 -250 843 -482 1426 -713 240 -96 343 -134 955 -355 l390
-141 110 1 c62 1 173 12 255 25 l145 24 3 42 c2 23 0 42 -5 42 -70 2 -344 54
-377 72 -13 7 -71 65 -128 128 -58 63 -183 196 -278 295 -206 215 -355 391
-448 529 -67 99 -89 137 -187 321 -399 747 -703 1186 -1076 1551 -229 224
-443 364 -670 438 -138 45 -230 59 -369 58 -175 -1 -337 -41 -501 -122 -198
-100 -399 -270 -455 -385 -25 -52 -29 -71 -29 -145 0 -150 50 -257 383 -820
64 -107 122 -206 131 -220 15 -24 15 -25 -4 -9 -11 8 -84 71 -163 138 -419
360 -619 590 -772 887 -158 308 -158 579 0 810 64 92 528 647 570 681 8 7 40
20 70 28 101 29 98 23 40 93 -28 34 -56 62 -60 62 -8 0 -190 -109 -558 -333
-50 -31 -102 -62 -114 -68 l-21 -11 20 33 c11 19 42 75 68 124 95 178 148 239
331 375 52 39 94 74 94 79 0 4 -11 18 -25 31 l-25 23 -64 -17 c-131 -36 -298
-150 -451 -308 -266 -275 -316 -422 -310 -913 2 -239 16 -352 64 -535 11 -41
19 -76 17 -78 -2 -2 -25 61 -51 140 -26 79 -74 200 -107 271 -87 188 -102 250
-102 432 1 134 4 159 28 239 38 125 85 223 169 351 40 60 89 137 108 170 50
87 207 240 299 292 140 78 307 118 450 106 67 -5 416 -101 795 -219 480 -149
863 -283 1107 -388 135 -58 251 -106 256 -106 4 0 19 11 32 25 l24 26 -75 74
c-74 75 -75 75 -249 146 -896 363 -1702 662 -1857 688 -92 15 -201 19 -294 11z"/>
<path d="M14435 11823 c-59 -37 -131 -110 -177 -177 -142 -207 -216 -546 -177
-809 14 -94 49 -228 58 -222 4 2 8 26 9 52 6 151 38 380 77 548 44 188 136
416 234 583 17 28 28 52 24 51 -5 0 -26 -12 -48 -26z"/>
<path d="M15930 11399 c-66 -33 -206 -180 -263 -276 -136 -227 -216 -547 -188
-751 24 -185 81 -273 195 -304 55 -15 330 5 661 48 262 34 356 31 447 -14 37
-18 114 -74 178 -128 l113 -97 -6 64 c-4 35 -14 192 -22 349 l-16 285 -237
233 c-324 319 -585 563 -630 587 -57 31 -174 33 -232 4z"/>
<path d="M7265 10953 c-9 -132 -31 -298 -50 -380 -68 -298 -211 -511 -436
-650 l-63 -38 75 -3 c99 -4 192 19 314 78 254 123 439 348 479 580 28 170 -19
366 -109 449 -42 39 -106 61 -174 61 l-29 0 -7 -97z"/>
<path d="M7733 10838 c4 -12 10 -70 13 -128 15 -248 -51 -473 -196 -670 -100
-135 -324 -330 -517 -450 -40 -25 -72 -48 -73 -52 0 -16 110 -7 176 13 118 36
209 92 339 205 197 172 415 499 510 764 27 77 75 262 75 291 0 13 -15 18 -77
24 -43 3 -91 8 -108 10 -153 19 -148 19 -142 -7z"/>
<path d="M5950 10721 c18 -73 24 -111 16 -111 -6 0 -40 9 -76 21 -100 31 -325
85 -430 103 -233 38 -324 45 -580 41 -359 -5 -531 -37 -735 -136 -306 -149
-546 -443 -581 -712 l-7 -51 34 25 c19 13 104 94 189 180 231 232 381 333 564
379 138 35 316 23 471 -30 32 -11 119 -27 194 -36 439 -50 744 -175 983 -402
108 -104 197 -220 248 -327 34 -71 104 -303 172 -570 23 -90 23 -90 53 -87 17
2 34 7 38 11 15 15 78 194 109 310 28 104 31 131 32 266 1 176 -15 245 -91
402 -37 78 -47 109 -54 178 -5 45 -18 109 -30 141 -25 68 -105 193 -179 279
-29 33 -78 94 -110 136 -64 83 -61 82 -192 95 l-66 6 28 -111z"/>
<path d="M8061 9662 c-50 -132 -53 -167 -27 -287 26 -124 32 -319 12 -453 -38
-259 -143 -473 -325 -664 -100 -106 -199 -182 -361 -279 -66 -40 -123 -76
-126 -81 -7 -11 40 -28 80 -28 84 0 296 104 428 211 189 151 323 356 434 662
51 140 82 197 127 230 51 39 95 47 243 48 379 2 633 116 1007 453 42 38 77 72
77 76 0 4 -30 3 -67 -2 -55 -8 -123 -35 -360 -144 -517 -238 -611 -274 -716
-274 -143 0 -215 88 -248 305 -6 39 -21 97 -34 130 -23 62 -93 215 -97 215 -2
0 -23 -53 -47 -118z"/>
<path d="M12195 9495 c-3 -8 -7 -23 -10 -32 -10 -31 -6 -274 11 -578 17 -310
15 -525 -5 -920 -18 -342 -45 -483 -118 -630 -51 -102 -90 -153 -269 -352
-480 -532 -924 -934 -1351 -1221 -76 -51 -251 -152 -264 -152 -2 0 -1 48 2
107 7 111 3 145 -29 247 l-19 58 -55 -76 c-75 -102 -109 -200 -163 -470 -62
-311 -87 -375 -215 -556 -344 -485 -710 -779 -1105 -890 -270 -75 -574 -68
-889 21 -157 44 -366 131 -486 201 -275 161 -346 189 -482 189 -84 0 -88 2
-111 29 -14 16 -55 86 -92 157 -86 163 -136 233 -228 319 -88 82 -160 126
-256 160 -202 70 -415 41 -603 -84 -21 -14 -37 -26 -35 -28 2 -2 70 -17 151
-34 323 -67 483 -142 621 -292 69 -75 137 -207 161 -314 24 -110 16 -241 -19
-317 -31 -69 -102 -141 -181 -183 l-57 -31 53 -44 c77 -65 273 -149 348 -149
27 0 45 7 63 26 48 48 94 224 133 509 14 104 27 191 29 193 4 4 157 -92 312
-196 393 -266 811 -386 1288 -369 181 7 335 27 475 62 371 93 689 283 873 522
103 135 162 248 299 577 55 132 113 266 128 296 37 74 68 177 76 254 l7 64 56
-27 c43 -20 72 -26 126 -26 75 0 100 10 295 115 75 40 165 65 176 49 3 -5 -2
-50 -11 -101 -24 -138 -69 -224 -169 -323 -114 -114 -202 -157 -428 -209 -136
-31 -190 -96 -234 -280 l-7 -29 164 6 c130 4 184 10 261 30 241 63 405 196
509 412 65 135 81 202 85 360 2 77 0 158 -5 181 l-8 41 170 179 c361 380 503
533 605 649 57 66 131 150 164 188 99 112 148 125 321 86 79 -17 98 -25 130
-57 55 -53 118 -192 167 -366 51 -181 66 -216 137 -329 150 -238 199 -457 218
-977 7 -168 3 -224 -36 -560 -40 -349 -12 -531 186 -1209 47 -161 93 -308 102
-325 9 -17 34 -53 56 -81 23 -27 42 -52 44 -54 7 -9 83 23 83 35 0 36 -65 316
-100 434 -101 333 -158 600 -181 845 -14 155 -7 430 16 565 25 149 31 467 11
634 -30 260 -108 539 -219 781 -67 145 -79 188 -116 387 -33 178 -62 248 -129
309 -79 73 -172 99 -359 99 -57 0 -103 3 -103 6 0 3 16 42 36 87 20 45 45 107
56 137 37 107 87 427 106 675 15 204 5 1021 -13 1095 -2 8 -6 51 -10 95 -17
223 -26 280 -57 348 -26 55 -35 67 -55 67 -13 0 -26 -7 -28 -15z"/>
<path d="M3364 8794 c-14 -55 2 -117 48 -189 57 -88 144 -262 193 -385 103
-262 195 -702 240 -1140 13 -134 14 -616 0 -705 -23 -155 -59 -328 -90 -430
-19 -66 -47 -174 -61 -240 -23 -107 -25 -135 -21 -265 6 -166 19 -224 81 -355
46 -95 107 -182 220 -311 38 -44 149 -185 247 -314 98 -129 203 -261 232 -293
l54 -57 7 46 c3 26 6 59 6 75 0 26 -190 450 -301 672 -52 102 -129 235 -218
373 -74 115 -101 197 -101 308 0 103 13 157 80 339 122 333 175 579 179 833 2
143 -11 253 -54 434 -53 226 -82 431 -100 710 -26 394 -94 552 -295 684 -41
27 -86 69 -114 104 -52 68 -77 87 -154 113 -70 24 -70 24 -78 -7z"/>
<path d="M9113 8013 c-25 -3 -34 -11 -43 -36 -98 -276 -125 -384 -136 -543
-12 -179 19 -324 108 -517 46 -99 50 -114 49 -178 -1 -58 -9 -89 -47 -186 -71
-179 -95 -284 -101 -448 -8 -218 31 -396 133 -600 81 -162 115 -201 244 -282
63 -39 116 -70 117 -69 4 3 -50 193 -115 406 -73 241 -86 313 -86 465 0 196
27 277 218 665 58 118 106 220 106 226 0 6 -28 18 -62 28 -212 59 -327 163
-359 324 -16 84 -6 333 20 475 10 60 17 127 15 150 -8 87 -15 127 -22 125 -4
0 -21 -3 -39 -5z"/>
<path d="M6974 6377 c86 -131 88 -139 90 -383 l1 -211 35 -69 c71 -138 218
-196 367 -144 46 16 34 52 -33 96 -151 100 -216 250 -207 474 6 147 -1 175
-55 229 -51 50 -113 77 -201 88 l-52 6 55 -86z"/>
<path d="M5158 4854 c-125 -30 -233 -113 -356 -277 -114 -149 -177 -283 -223
-472 -26 -104 -37 -355 -20 -438 16 -76 75 -190 155 -302 104 -144 158 -201
206 -213 56 -14 123 6 173 53 l38 35 -61 67 c-125 137 -198 276 -225 428 -19
110 -19 170 0 278 28 159 82 284 199 455 73 108 118 183 195 325 l42 77 -33
-1 c-18 0 -59 -7 -90 -15z"/>
<path d="M5955 4108 c-433 -23 -902 -59 -937 -73 -22 -9 -68 -102 -75 -153 -7
-49 26 -127 72 -172 57 -55 100 -39 255 95 179 155 354 200 734 188 l184 -6 7
34 c7 29 4 36 -21 56 -45 36 -69 39 -219 31z"/>
<path d="M8681 3734 l-92 -46 47 -86 c25 -47 83 -138 127 -201 666 -953 1411
-1668 2297 -2206 195 -118 262 -149 327 -150 60 0 90 18 143 88 49 64 149 242
156 276 l6 28 -274 92 c-468 159 -700 254 -953 393 -523 286 -950 684 -1247
1162 -77 123 -213 390 -274 535 -21 52 -53 109 -70 128 -44 46 -80 44 -193
-13z"/>
<path d="M5493 3595 c-206 -47 -323 -203 -323 -433 0 -252 126 -558 325 -786
124 -142 220 -213 795 -587 687 -448 1100 -640 1557 -724 245 -45 407 -30 578
54 92 46 168 106 231 182 45 54 99 138 92 144 -1 1 -54 -17 -117 -42 -96 -38
-129 -46 -206 -50 -163 -10 -164 -10 -413 214 -619 557 -984 932 -1255 1291
-92 120 -121 173 -187 332 -75 180 -129 269 -179 294 -47 24 -334 79 -586 111
-135 18 -235 18 -312 0z"/>
</g>
</svg>
